<svg width="1214" height="280" viewBox="0 0 1214 280" fill="none" xmlns="http://www.w3.org/2000/svg">
    <mask id="mask0_1_13195" style="mask-type:alpha" maskUnits="userSpaceOnUse" x="0" y="0" width="1214" height="280">
        <rect opacity="0.8" width="1214" height="280" rx="30" fill="#6C5FBC"/>
    </mask>
    <g mask="url(#mask0_1_13195)">
        <g opacity="0.25">
            <path d="M468.318 140.951C464.434 144.718 459.145 147.008 453.31 146.965C447.514 146.923 442.225 144.59 438.282 140.78" stroke="#1C186C" stroke-width="4.63957" stroke-linecap="round" stroke-linejoin="round"/>
            <path d="M439.219 149.618C443.415 152.401 448.236 153.984 453.349 154.027C459.341 154.07 464.903 151.973 469.528 148.334C471.402 146.858 471.929 143.968 470.719 141.743L469.45 139.41L464.2 129.908C464.2 129.908 460.473 123.145 456.96 116.767C455.262 113.685 451.319 113.642 449.641 116.681L437.151 139.239L435.921 141.464C434.711 143.669 435.258 146.601 437.17 148.099C437.814 148.655 438.517 149.148 439.219 149.618Z" stroke="#1C186C" stroke-width="4.63957" stroke-linecap="round" stroke-linejoin="round"/>
            <path d="M446.343 136.521C445.875 136.307 445.348 136.307 444.88 136.521C444.626 136.628 444.431 136.778 444.236 136.97C443.884 137.377 443.67 137.912 443.67 138.468C443.67 139.046 443.865 139.56 444.236 139.966C444.606 140.373 445.075 140.587 445.602 140.587C446.129 140.587 446.597 140.373 446.968 139.966C447.339 139.56 447.534 139.025 447.534 138.468C447.534 137.912 447.319 137.377 446.968 136.97C446.792 136.756 446.578 136.606 446.343 136.521Z" fill="#201D67"/>
            <path d="M454.033 138.619C453.564 138.405 453.037 138.405 452.569 138.619C452.335 138.726 452.12 138.875 451.925 139.068C451.574 139.475 451.359 140.01 451.359 140.566C451.359 141.144 451.554 141.658 451.925 142.064C452.296 142.471 452.764 142.685 453.291 142.685C453.818 142.685 454.286 142.471 454.657 142.064C455.028 141.658 455.223 141.144 455.223 140.566C455.223 140.01 455.008 139.475 454.657 139.068C454.481 138.875 454.286 138.726 454.033 138.619Z" fill="#201D67"/>
            <path d="M462.387 136.949C461.665 136.158 460.377 136.158 459.655 136.949C459.303 137.356 459.089 137.891 459.089 138.447C459.089 139.025 459.284 139.539 459.655 139.946C460.025 140.352 460.494 140.566 461.021 140.566C461.274 140.566 461.528 140.502 461.743 140.395C461.977 140.288 462.192 140.138 462.387 139.946C462.758 139.539 462.953 139.025 462.953 138.447C462.933 137.912 462.719 137.356 462.387 136.949Z" fill="#201D67"/>
            <path d="M458.932 129.201C458.835 128.923 458.698 128.709 458.522 128.495C457.8 127.703 456.512 127.703 455.79 128.495C455.614 128.709 455.478 128.923 455.38 129.201C455.283 129.458 455.224 129.737 455.224 129.993C455.224 130.272 455.283 130.55 455.38 130.785C455.478 131.042 455.614 131.277 455.79 131.491C456.161 131.898 456.629 132.112 457.156 132.112C457.41 132.112 457.664 132.048 457.878 131.941C458.113 131.834 458.327 131.684 458.522 131.491C458.893 131.085 459.088 130.571 459.088 129.993C459.088 129.737 459.03 129.458 458.932 129.201Z" fill="#201D67"/>
            <path d="M451.223 129.201C451.125 128.945 450.989 128.709 450.813 128.495C450.072 127.703 448.783 127.703 448.081 128.495C447.905 128.709 447.769 128.923 447.671 129.201C447.573 129.458 447.515 129.737 447.515 129.993C447.515 130.571 447.71 131.085 448.081 131.491C448.276 131.684 448.491 131.834 448.725 131.941C448.959 132.048 449.213 132.112 449.467 132.112C449.993 132.112 450.462 131.898 450.833 131.491C451.008 131.277 451.145 131.042 451.242 130.785C451.36 130.528 451.399 130.25 451.399 129.993C451.379 129.737 451.34 129.458 451.223 129.201Z" fill="#201D67"/>
            <path d="M451.944 123.06C452.315 123.467 452.784 123.681 453.311 123.681C453.564 123.681 453.818 123.616 454.033 123.509C454.267 123.402 454.481 123.253 454.677 123.06C454.852 122.846 454.989 122.611 455.086 122.354C455.184 122.097 455.243 121.819 455.243 121.562C455.243 120.984 455.028 120.47 454.677 120.064C454.13 119.486 453.291 119.272 452.569 119.614C452.315 119.721 452.12 119.871 451.925 120.064C451.574 120.47 451.359 121.005 451.359 121.562C451.359 121.84 451.417 122.118 451.515 122.354C451.632 122.611 451.769 122.846 451.944 123.06Z" fill="#201D67"/>
            <path d="M933.855 46.3139C931.493 51.7927 926.419 55.5808 920.525 55.5808C912.387 55.5808 905.771 48.3257 905.771 39.4012C905.771 31.4613 911.001 24.8482 917.91 23.4785C918.144 28.2939 921.364 32.2531 925.58 33.1306C925.502 33.7084 925.443 34.3077 925.443 34.9069C925.443 40.5141 929.054 45.201 933.855 46.3139Z" stroke="#1C186C" stroke-width="4.63957" stroke-linecap="round" stroke-linejoin="round"/>
            <path d="M914.416 30.584C913.225 30.584 912.25 31.6541 912.25 32.9596C912.25 34.265 913.225 35.3351 914.416 35.3351C915.606 35.3351 916.582 34.265 916.582 32.9596C916.582 31.6327 915.606 30.584 914.416 30.584Z" fill="#201D67"/>
            <path d="M909.635 18.1924C908.444 18.1924 907.469 19.2625 907.469 20.568C907.469 21.8734 908.444 22.9435 909.635 22.9435C910.825 22.9435 911.801 21.8734 911.801 20.568C911.782 19.2411 910.825 18.1924 909.635 18.1924Z" fill="#201D67"/>
            <path d="M920.72 37.8809C919.529 37.8809 918.553 38.9509 918.553 40.2564C918.553 41.5619 919.529 42.632 920.72 42.632C921.91 42.632 922.886 41.5619 922.886 40.2564C922.886 38.9295 921.91 37.8809 920.72 37.8809Z" fill="#201D67"/>
            <path d="M922.594 47.4053C922.594 47.4053 922.184 47.6621 921.657 48.0045C921.15 48.3255 920.72 48.6038 920.72 48.6038C920.72 48.6038 921.13 48.3469 921.657 48.0045C922.164 47.6621 922.594 47.4053 922.594 47.4053Z" stroke="#1C186C" stroke-width="4.63957" stroke-linecap="round" stroke-linejoin="round"/>
            <path d="M912.659 41.2637C912.659 41.2637 913.108 41.4777 913.654 41.7345C914.201 41.9913 914.65 42.2053 914.65 42.2053C914.65 42.2053 914.201 41.9913 913.654 41.7345C913.108 41.4777 912.659 41.2637 912.659 41.2637Z" stroke="#1C186C" stroke-width="4.63957" stroke-linecap="round" stroke-linejoin="round"/>
            <path d="M902.979 27.8013C902.979 27.8013 903.331 27.4375 903.76 26.9881C904.189 26.5386 904.541 26.1748 904.541 26.1748C904.541 26.1748 904.189 26.5386 903.76 26.9881C903.331 27.4375 902.979 27.8013 902.979 27.8013Z" stroke="#1C186C" stroke-width="4.63957" stroke-linecap="round" stroke-linejoin="round"/>
            <path d="M901.007 39.7225C898.978 37.1972 897.748 33.9013 897.748 30.2845C897.748 22.3873 903.583 15.9883 910.785 15.9883C916.601 15.9883 921.538 20.1616 923.217 25.94" stroke="#1C186C" stroke-width="4.63957" stroke-linecap="round" stroke-linejoin="round"/>
            <path d="M532.54 204.577C531.287 204.271 529.984 204.315 528.75 204.704C527.516 205.093 526.39 205.814 525.476 206.802C525.088 207.241 524.871 207.829 524.871 208.44C524.871 209.051 525.088 209.638 525.476 210.077L527.7 212.602" stroke="#1C186C" stroke-width="4.63957" stroke-linecap="round" stroke-linejoin="round"/>
            <path d="M547.099 220.82C547.367 222.212 547.315 223.655 546.947 225.019C546.579 226.382 545.907 227.624 544.992 228.632C544.797 228.847 544.566 229.017 544.312 229.134C544.057 229.25 543.784 229.31 543.508 229.31C543.233 229.31 542.959 229.25 542.705 229.134C542.45 229.017 542.219 228.847 542.025 228.632L539.761 226.106" stroke="#1C186C" stroke-width="4.63957" stroke-linecap="round" stroke-linejoin="round"/>
            <path d="M529.242 226.621C530.047 228.017 530.474 229.635 530.472 231.286C530.471 232.401 530.269 233.505 529.877 234.533C529.486 235.562 528.911 236.495 528.189 237.279C528.052 237.414 527.875 237.489 527.691 237.489C527.507 237.489 527.33 237.414 527.193 237.279C526.555 236.57 526.045 235.735 525.69 234.817C525.368 234.147 525.144 233.425 525.027 232.677C524.982 232.222 524.982 231.763 525.027 231.308C525.378 229.227 526.345 227.331 527.779 225.914C526.45 227.448 524.704 228.469 522.802 228.825C522.387 228.868 521.968 228.868 521.553 228.825C520.87 228.679 520.212 228.419 519.601 228.055C518.761 227.618 518.006 227.007 517.377 226.257C517.253 226.107 517.185 225.913 517.185 225.711C517.185 225.509 517.253 225.315 517.377 225.165C518.837 223.6 520.799 222.724 522.841 222.726C524.339 222.736 525.802 223.219 527.057 224.117" stroke="#1C186C" stroke-width="4.63957" stroke-linecap="round" stroke-linejoin="round"/>
            <path d="M551.628 199.847C551.396 199.557 551.134 199.298 550.847 199.077C550.044 198.516 549.147 198.136 548.209 197.96C547.271 197.783 546.31 197.814 545.382 198.049C543.191 198.413 541.076 199.203 539.137 200.382C535.493 202.312 532.431 205.351 530.316 209.135C528.441 212.94 527.38 217.163 527.213 221.484C527.213 221.784 526.881 224.031 527.096 224.181L529.262 226.62C529.399 226.856 531.428 226.62 531.702 226.513C535.661 226.4 539.543 225.279 543.04 223.239C546.51 220.992 549.305 217.681 551.081 213.715C552.799 209.799 554.75 203.571 551.628 199.847Z" stroke="#1C186C" stroke-width="4.63957" stroke-linecap="round" stroke-linejoin="round"/>
            <path d="M538.042 202.33C538.834 205.251 540.261 207.917 542.199 210.099C544.147 212.276 546.553 213.893 549.206 214.807" stroke="#1C186C" stroke-width="4.63957" stroke-linecap="round" stroke-linejoin="round"/>
            <path d="M546.475 202.394C546.293 202.187 546.075 202.022 545.834 201.91C545.592 201.797 545.333 201.739 545.07 201.739C544.808 201.739 544.548 201.797 544.307 201.91C544.065 202.022 543.847 202.187 543.665 202.394C543.399 202.697 543.221 203.078 543.151 203.491C543.082 203.904 543.124 204.33 543.274 204.717C543.424 205.103 543.674 205.433 543.993 205.664C544.313 205.896 544.687 206.02 545.07 206.02C545.453 206.02 545.828 205.896 546.147 205.664C546.466 205.433 546.717 205.103 546.866 204.717C547.016 204.33 547.059 203.904 546.989 203.491C546.92 203.078 546.741 202.697 546.475 202.394Z" fill="#201D67"/>
            <path d="M730.182 215.429L738.203 239.634L746.224 215.429" stroke="#1C186C" stroke-width="4.63957" stroke-linecap="round" stroke-linejoin="round"/>
            <path d="M750.244 214.337C749.912 214.337 749.619 214.358 749.346 214.401C747.199 214.786 746.906 216.541 744.213 216.541C741.188 216.541 741.188 214.337 738.202 214.337C735.177 214.337 735.177 216.541 732.191 216.541C729.498 216.541 729.225 214.808 727.058 214.401C726.805 214.358 726.492 214.337 726.161 214.337" stroke="#1C186C" stroke-width="4.63957" stroke-linecap="round" stroke-linejoin="round"/>
            <path d="M748.234 211.041C748.234 212.197 748.078 213.353 747.746 214.401C745.892 214.787 745.658 216.542 743.355 216.542C740.76 216.542 740.76 214.337 738.203 214.337C735.607 214.337 735.607 216.542 733.051 216.542C730.748 216.542 730.494 214.808 728.66 214.401C728.347 213.353 728.172 212.197 728.172 211.041C728.172 204.963 732.66 200.041 738.203 200.041C743.746 200.041 748.234 204.963 748.234 211.041Z" stroke="#1C186C" stroke-width="4.63957" stroke-linecap="round" stroke-linejoin="round"/>
            <path d="M748.234 217.634H728.172" stroke="#1C186C" stroke-width="4.63957" stroke-linecap="round" stroke-linejoin="round"/>
            <path d="M936.683 218.551H922.241V220.819H936.683V218.551Z" stroke="#1C186C" stroke-width="4.63957" stroke-linecap="round" stroke-linejoin="round"/>
            <path d="M945.427 200.446C946.754 200.446 947.768 201.816 947.456 203.228C945.407 212.025 938.127 218.531 929.462 218.531C920.797 218.531 913.518 212.025 911.468 203.228C911.137 201.816 912.151 200.446 913.498 200.446H945.427V200.446Z" stroke="#1C186C" stroke-width="4.63957" stroke-linecap="round" stroke-linejoin="round"/>
            <path d="M921.675 200.445C923.949 200.445 925.792 198.424 925.792 195.93C925.792 193.436 923.949 191.414 921.675 191.414C919.4 191.414 917.557 193.436 917.557 195.93C917.557 198.424 919.4 200.445 921.675 200.445Z" stroke="#1C186C" stroke-width="4.63957" stroke-linecap="round" stroke-linejoin="round"/>
            <path d="M937.249 200.105C939.523 200.105 941.366 198.083 941.366 195.589C941.366 193.095 939.523 191.073 937.249 191.073C934.974 191.073 933.131 193.095 933.131 195.589C933.131 198.083 934.974 200.105 937.249 200.105Z" stroke="#1C186C" stroke-width="4.63957" stroke-linecap="round" stroke-linejoin="round"/>
            <path d="M930.106 200.126C931.82 200.126 933.21 198.602 933.21 196.723C933.21 194.844 931.82 193.32 930.106 193.32C928.393 193.32 927.003 194.844 927.003 196.723C927.003 198.602 928.393 200.126 930.106 200.126Z" stroke="#1C186C" stroke-width="4.63957" stroke-linecap="round" stroke-linejoin="round"/>
            <path d="M919.431 191.715L912.952 184.609" stroke="#1C186C" stroke-width="4.63957" stroke-linecap="round" stroke-linejoin="round"/>
            <path d="M914.005 207.189H944.919" stroke="#1C186C" stroke-width="4.63957" stroke-linecap="round" stroke-linejoin="round"/>
            <path d="M853.349 112.83H818.22C818.22 116.383 820.835 119.251 824.075 119.251H847.494C850.734 119.251 853.349 116.383 853.349 112.83Z" stroke="#1C186C" stroke-width="4.63957" stroke-linecap="round" stroke-linejoin="round"/>
            <path d="M835.785 93.5684C827.158 93.5684 820.172 101.23 820.172 110.69V112.83H851.398V110.69C851.398 101.23 844.411 93.5684 835.785 93.5684Z" stroke="#1C186C" stroke-width="4.63957" stroke-linecap="round" stroke-linejoin="round"/>
            <path d="M835.785 95.1741C837.671 95.1741 839.2 93.4973 839.2 91.4289C839.2 89.3604 837.671 87.6836 835.785 87.6836C833.898 87.6836 832.369 89.3604 832.369 91.4289C832.369 93.4973 833.898 95.1741 835.785 95.1741Z" fill="#201D67"/>
            <path d="M713.256 82.9697C718.662 83.3336 724.068 85.9231 728.342 90.6743C732.577 95.3826 734.9 101.375 735.251 107.367" stroke="#1C186C" stroke-width="4.63957" stroke-linecap="round" stroke-linejoin="round"/>
            <path d="M737.474 108.758L735.074 109.4L710.717 115.927C707.439 116.805 704.57 113.595 705.39 109.956L707.107 102.252L707.224 101.76L708.727 95.0608L708.863 94.4188L711.4 83.183L712.025 80.4436C712.611 77.8112 714.933 76.1205 717.314 76.5485C723.169 77.5972 728.672 80.5506 733.063 85.4302C737.435 90.2669 740.07 96.3663 741.026 102.851C741.416 105.505 739.855 108.116 737.474 108.758Z" stroke="#1C186C" stroke-width="4.63957" stroke-linecap="round" stroke-linejoin="round"/>
            <path d="M722.76 101.91C724.484 101.91 725.882 100.357 725.882 98.4426C725.882 96.5278 724.484 94.9756 722.76 94.9756C721.035 94.9756 719.637 96.5278 719.637 98.4426C719.637 100.357 721.035 101.91 722.76 101.91Z" stroke="#1C186C" stroke-width="4.63957" stroke-linecap="round" stroke-linejoin="round"/>
            <path d="M711.205 100.605C710.132 101.804 708.59 102.189 707.224 101.718L709.175 92.9863C709.917 93.1789 710.62 93.5642 711.205 94.2062C712.806 95.9825 712.806 98.8503 711.205 100.605Z" stroke="#1C186C" stroke-width="4.63957" stroke-linecap="round" stroke-linejoin="round"/>
            <path d="M713.665 112.803C713.372 111.562 713.665 110.192 714.523 109.229C715.831 107.774 717.939 107.774 719.246 109.229C719.676 109.7 719.969 110.278 720.105 110.898" stroke="#1C186C" stroke-width="4.63957" stroke-linecap="round" stroke-linejoin="round"/>
            <path d="M635.061 114.776L615.076 136.691C612.949 139.024 612.949 142.791 615.076 145.123C617.204 147.456 620.639 147.456 622.766 145.123L642.75 123.208C644.878 120.875 644.878 117.109 642.75 114.776C640.623 112.443 637.188 112.443 635.061 114.776Z" stroke="#1C186C" stroke-width="4.63957" stroke-linecap="round" stroke-linejoin="round"/>
            <path d="M619.272 139.602C621.575 137.077 622.395 137.976 624.717 135.45C627.02 132.925 626.2 132.026 628.503 129.479C630.806 126.954 631.645 127.853 633.948 125.327C636.251 122.802 635.431 121.882 637.734 119.356" stroke="#1C186C" stroke-width="4.63957" stroke-linecap="round" stroke-linejoin="round"/>
            <path d="M628.152 112.251L612.773 129.116C610.216 131.919 610.216 136.435 612.773 139.239L637.363 112.273C634.826 109.448 630.689 109.448 628.152 112.251Z" stroke="#1C186C" stroke-width="4.63957" stroke-linecap="round" stroke-linejoin="round"/>
            <path d="M629.675 147.648L645.053 130.784C647.61 127.98 647.61 123.465 645.053 120.661L620.463 147.627C623 150.452 627.137 150.452 629.675 147.648Z" stroke="#1C186C" stroke-width="4.63957" stroke-linecap="round" stroke-linejoin="round"/>
            <path d="M531.333 66.2172H511.817C508.343 66.2172 505.532 63.1354 505.532 59.3259V55.2168H537.617V59.3259C537.617 63.1354 534.807 66.2172 531.333 66.2172Z" stroke="#1C186C" stroke-width="4.63957" stroke-linecap="round" stroke-linejoin="round"/>
            <path d="M536.622 48.625H506.528C504.869 48.625 503.522 50.1017 503.522 51.9208C503.522 53.74 504.869 55.2167 506.528 55.2167H536.622C538.281 55.2167 539.627 53.74 539.627 51.9208C539.627 50.1017 538.281 48.625 536.622 48.625Z" stroke="#1C186C" stroke-width="4.63957" stroke-linecap="round" stroke-linejoin="round"/>
            <path d="M522.609 31.0332H520.54C512.246 31.0332 505.532 38.3953 505.532 47.491V48.6252H537.617V47.491C537.617 38.3953 530.904 31.0332 522.609 31.0332Z" stroke="#1C186C" stroke-width="4.63957" stroke-linecap="round" stroke-linejoin="round"/>
            <path d="M505.318 55.752C506.079 56.6508 506.625 57.8707 508.05 57.8707C509.475 57.8707 510.021 56.6508 510.782 55.752" stroke="#1C186C" stroke-width="4.63957" stroke-linecap="round" stroke-linejoin="round"/>
            <path d="M523.643 55.752C524.404 56.6508 524.95 57.8707 526.375 57.8707C527.819 57.8707 528.366 56.6508 529.127 55.752" stroke="#1C186C" stroke-width="4.63957" stroke-linecap="round" stroke-linejoin="round"/>
            <path d="M535.566 57.8492C534.142 57.8492 533.595 56.6293 532.834 55.7305" stroke="#1C186C" stroke-width="4.63957" stroke-linecap="round" stroke-linejoin="round"/>
            <path d="M514.49 55.752C515.251 56.6508 515.797 57.8707 517.222 57.8707C518.646 57.8707 519.193 56.6508 519.954 55.752" stroke="#1C186C" stroke-width="4.63957" stroke-linecap="round" stroke-linejoin="round"/>
            <path d="M1025.56 96.0091C1021.67 99.7758 1016.38 102.066 1010.55 102.023C1004.75 101.98 999.462 99.6474 995.52 95.8379" stroke="#1C186C" stroke-width="4.63957" stroke-linecap="round" stroke-linejoin="round"/>
            <path d="M996.457 104.676C1000.65 107.458 1005.47 109.042 1010.59 109.085C1016.58 109.128 1022.14 107.03 1026.77 103.392C1028.64 101.915 1029.17 99.026 1027.96 96.8002L1026.69 94.4675L1021.44 84.9652C1021.44 84.9652 1017.71 78.2023 1014.2 71.8247C1012.5 68.7429 1008.56 68.7001 1006.88 71.7391L994.388 94.2963L993.158 96.522C991.948 98.7264 992.495 101.658 994.408 103.156C995.052 103.713 995.754 104.205 996.457 104.676Z" stroke="#1C186C" stroke-width="4.63957" stroke-linecap="round" stroke-linejoin="round"/>
            <path d="M1003.58 91.5775C1003.11 91.3635 1002.58 91.3635 1002.12 91.5775C1001.86 91.6845 1001.67 91.8343 1001.47 92.0269C1001.12 92.4335 1000.91 92.9686 1000.91 93.525C1000.91 94.1029 1001.1 94.6165 1001.47 95.0231C1001.84 95.4297 1002.31 95.6438 1002.84 95.6438C1003.37 95.6438 1003.83 95.4297 1004.2 95.0231C1004.58 94.6165 1004.77 94.0815 1004.77 93.525C1004.77 92.9686 1004.56 92.4335 1004.2 92.0269C1004.03 91.8129 1003.81 91.6631 1003.58 91.5775Z" fill="#201D67"/>
            <path d="M1011.27 93.6771C1010.8 93.4631 1010.27 93.4631 1009.81 93.6771C1009.57 93.7841 1009.36 93.9339 1009.16 94.1265C1008.81 94.5332 1008.6 95.0682 1008.6 95.6247C1008.6 96.2025 1008.79 96.7161 1009.16 97.1228C1009.53 97.5294 1010 97.7434 1010.53 97.7434C1011.05 97.7434 1011.52 97.5294 1011.89 97.1228C1012.26 96.7161 1012.46 96.2025 1012.46 95.6247C1012.46 95.0682 1012.24 94.5332 1011.89 94.1265C1011.72 93.9339 1011.52 93.7841 1011.27 93.6771Z" fill="#201D67"/>
            <path d="M1019.62 92.006C1018.9 91.2141 1017.61 91.2141 1016.89 92.006C1016.54 92.4126 1016.32 92.9477 1016.32 93.5041C1016.32 94.0819 1016.52 94.5956 1016.89 95.0022C1017.26 95.4088 1017.73 95.6229 1018.26 95.6229C1018.51 95.6229 1018.76 95.5587 1018.98 95.4516C1019.21 95.3446 1019.43 95.1948 1019.62 95.0022C1019.99 94.5956 1020.19 94.0819 1020.19 93.5041C1020.17 92.9691 1019.95 92.4126 1019.62 92.006Z" fill="#201D67"/>
            <path d="M1016.17 84.2601C1016.07 83.9819 1015.93 83.7679 1015.76 83.5539C1015.04 82.762 1013.75 82.762 1013.03 83.5539C1012.85 83.7679 1012.71 83.9819 1012.62 84.2601C1012.52 84.5169 1012.46 84.7951 1012.46 85.052C1012.46 85.3302 1012.52 85.6084 1012.62 85.8438C1012.71 86.1006 1012.85 86.336 1013.03 86.55C1013.4 86.9567 1013.86 87.1707 1014.39 87.1707C1014.65 87.1707 1014.9 87.1065 1015.11 86.9995C1015.35 86.8925 1015.56 86.7427 1015.76 86.55C1016.13 86.1434 1016.32 85.6298 1016.32 85.052C1016.32 84.7951 1016.27 84.5169 1016.17 84.2601Z" fill="#201D67"/>
            <path d="M1008.46 84.2601C1008.36 84.0033 1008.22 83.7679 1008.05 83.5539C1007.31 82.762 1006.02 82.762 1005.32 83.5539C1005.14 83.7679 1005 83.9819 1004.91 84.2601C1004.81 84.5169 1004.75 84.7951 1004.75 85.052C1004.75 85.6298 1004.95 86.1434 1005.32 86.55C1005.51 86.7427 1005.73 86.8925 1005.96 86.9995C1006.19 87.1065 1006.45 87.1707 1006.7 87.1707C1007.23 87.1707 1007.7 86.9567 1008.07 86.55C1008.24 86.336 1008.38 86.1006 1008.48 85.8438C1008.59 85.587 1008.63 85.3088 1008.63 85.052C1008.61 84.7951 1008.58 84.5169 1008.46 84.2601Z" fill="#201D67"/>
            <path d="M1009.18 78.1166C1009.55 78.5233 1010.02 78.7373 1010.55 78.7373C1010.8 78.7373 1011.05 78.6731 1011.27 78.5661C1011.5 78.4591 1011.72 78.3092 1011.91 78.1166C1012.09 77.9026 1012.23 77.6672 1012.32 77.4104C1012.42 77.1536 1012.48 76.8753 1012.48 76.6185C1012.48 76.0407 1012.26 75.5271 1011.91 75.1204C1011.37 74.5426 1010.53 74.3286 1009.81 74.671C1009.55 74.778 1009.36 74.9278 1009.16 75.1204C1008.81 75.5271 1008.6 76.0621 1008.6 76.6185C1008.6 76.8968 1008.65 77.175 1008.75 77.4104C1008.87 77.6672 1009.01 77.9026 1009.18 78.1166Z" fill="#201D67"/>
            <path d="M840.174 256.048C837.813 261.527 832.739 265.315 826.845 265.315C818.707 265.315 812.091 258.06 812.091 249.136C812.091 241.196 817.321 234.583 824.23 233.213C824.464 238.028 827.684 241.988 831.9 242.865C831.821 243.443 831.763 244.042 831.763 244.641C831.763 250.248 835.373 254.935 840.174 256.048Z" stroke="#1C186C" stroke-width="4.63957" stroke-linecap="round" stroke-linejoin="round"/>
            <path d="M820.736 240.319C819.545 240.319 818.569 241.389 818.569 242.695C818.569 244 819.545 245.07 820.736 245.07C821.926 245.07 822.902 244 822.902 242.695C822.902 241.368 821.926 240.319 820.736 240.319Z" fill="#201D67"/>
            <path d="M815.955 227.927C814.764 227.927 813.788 228.997 813.788 230.302C813.788 231.608 814.764 232.678 815.955 232.678C817.145 232.678 818.121 231.608 818.121 230.302C818.101 228.975 817.145 227.927 815.955 227.927Z" fill="#201D67"/>
            <path d="M827.04 247.617C825.849 247.617 824.874 248.687 824.874 249.993C824.874 251.298 825.849 252.368 827.04 252.368C828.23 252.368 829.206 251.298 829.206 249.993C829.206 248.666 828.23 247.617 827.04 247.617Z" fill="#201D67"/>
            <path d="M828.913 257.139C828.913 257.139 828.503 257.395 827.976 257.738C827.469 258.059 827.04 258.337 827.04 258.337C827.04 258.337 827.449 258.08 827.976 257.738C828.484 257.395 828.913 257.139 828.913 257.139Z" stroke="#1C186C" stroke-width="4.63957" stroke-linecap="round" stroke-linejoin="round"/>
            <path d="M818.981 250.998C818.981 250.998 819.43 251.212 819.976 251.469C820.523 251.726 820.972 251.94 820.972 251.94C820.972 251.94 820.523 251.726 819.976 251.469C819.43 251.212 818.981 250.998 818.981 250.998Z" stroke="#1C186C" stroke-width="4.63957" stroke-linecap="round" stroke-linejoin="round"/>
            <path d="M809.301 237.537C809.301 237.537 809.652 237.173 810.081 236.723C810.511 236.274 810.862 235.91 810.862 235.91C810.862 235.91 810.511 236.274 810.081 236.723C809.652 237.173 809.301 237.537 809.301 237.537Z" stroke="#1C186C" stroke-width="4.63957" stroke-linecap="round" stroke-linejoin="round"/>
            <path d="M807.329 249.458C805.3 246.933 804.07 243.637 804.07 240.02C804.07 232.123 809.905 225.724 817.107 225.724C822.923 225.724 827.86 229.897 829.539 235.675" stroke="#1C186C" stroke-width="4.63957" stroke-linecap="round" stroke-linejoin="round"/>
            <path d="M1098.47 159.637C1097.22 159.332 1095.91 159.376 1094.68 159.764C1093.45 160.153 1092.32 160.875 1091.41 161.863C1091.02 162.302 1090.8 162.889 1090.8 163.5C1090.8 164.111 1091.02 164.698 1091.41 165.137L1093.63 167.663" stroke="#1C186C" stroke-width="4.63957" stroke-linecap="round" stroke-linejoin="round"/>
            <path d="M1113.03 175.88C1113.3 177.271 1113.24 178.714 1112.88 180.078C1112.51 181.442 1111.84 182.684 1110.92 183.691C1110.73 183.906 1110.5 184.077 1110.24 184.193C1109.99 184.31 1109.71 184.369 1109.44 184.369C1109.16 184.369 1108.89 184.31 1108.63 184.193C1108.38 184.077 1108.15 183.906 1107.95 183.691L1105.69 181.166" stroke="#1C186C" stroke-width="4.63957" stroke-linecap="round" stroke-linejoin="round"/>
            <path d="M1095.17 181.68C1095.98 183.076 1096.4 184.694 1096.4 186.346C1096.4 187.461 1096.2 188.564 1095.81 189.593C1095.42 190.621 1094.84 191.554 1094.12 192.338C1093.98 192.474 1093.8 192.548 1093.62 192.548C1093.44 192.548 1093.26 192.474 1093.12 192.338C1092.48 191.629 1091.97 190.794 1091.62 189.877C1091.3 189.206 1091.07 188.484 1090.96 187.737C1090.91 187.282 1090.91 186.822 1090.96 186.367C1091.31 184.286 1092.27 182.39 1093.71 180.974C1092.38 182.508 1090.63 183.529 1088.73 183.885C1088.32 183.928 1087.9 183.928 1087.48 183.885C1086.8 183.739 1086.14 183.479 1085.53 183.114C1084.69 182.677 1083.94 182.067 1083.31 181.316C1083.18 181.167 1083.11 180.972 1083.11 180.771C1083.11 180.569 1083.18 180.374 1083.31 180.225C1084.77 178.659 1086.73 177.783 1088.77 177.785C1090.27 177.796 1091.73 178.279 1092.99 179.176" stroke="#1C186C" stroke-width="4.63957" stroke-linecap="round" stroke-linejoin="round"/>
            <path d="M1117.56 154.907C1117.33 154.616 1117.06 154.358 1116.78 154.136C1115.97 153.575 1115.08 153.196 1114.14 153.019C1113.2 152.843 1112.24 152.873 1111.31 153.109C1109.12 153.472 1107.01 154.262 1105.07 155.442C1101.42 157.372 1098.36 160.41 1096.25 164.195C1094.37 168 1093.31 172.222 1093.14 176.544C1093.14 176.843 1092.81 179.09 1093.03 179.24L1095.19 181.68C1095.33 181.915 1097.36 181.68 1097.63 181.573C1101.59 181.459 1105.47 180.338 1108.97 178.298C1112.44 176.051 1115.23 172.741 1117.01 168.775C1118.73 164.858 1120.68 158.63 1117.56 154.907Z" stroke="#1C186C" stroke-width="4.63957" stroke-linecap="round" stroke-linejoin="round"/>
            <path d="M1103.97 157.39C1104.77 160.31 1106.19 162.976 1108.13 165.158C1110.08 167.335 1112.48 168.952 1115.14 169.867" stroke="#1C186C" stroke-width="4.63957" stroke-linecap="round" stroke-linejoin="round"/>
            <path d="M1112.41 157.454C1112.22 157.247 1112 157.082 1111.76 156.969C1111.52 156.857 1111.26 156.799 1111 156.799C1110.74 156.799 1110.48 156.857 1110.24 156.969C1110 157.082 1109.78 157.247 1109.59 157.454C1109.33 157.756 1109.15 158.138 1109.08 158.55C1109.01 158.963 1109.05 159.39 1109.2 159.776C1109.35 160.163 1109.6 160.492 1109.92 160.724C1110.24 160.956 1110.62 161.079 1111 161.079C1111.38 161.079 1111.76 160.956 1112.08 160.724C1112.4 160.492 1112.65 160.163 1112.8 159.776C1112.95 159.39 1112.99 158.963 1112.92 158.55C1112.85 158.138 1112.67 157.756 1112.41 157.454Z" fill="#201D67"/>
            <path d="M615.235 245.048C620.641 245.412 626.047 248.001 630.321 252.752C634.556 257.461 636.878 263.453 637.23 269.446" stroke="#1C186C" stroke-width="4.63957" stroke-linecap="round" stroke-linejoin="round"/>
            <path d="M639.452 270.836L637.052 271.478L612.695 278.005C609.417 278.883 606.548 275.673 607.368 272.034L609.085 264.33L609.202 263.838L610.705 257.139L610.841 256.497L613.379 245.261L614.003 242.522C614.589 239.889 616.911 238.199 619.292 238.627C625.147 239.675 630.65 242.629 635.041 247.508C639.413 252.345 642.048 258.444 643.004 264.929C643.394 267.583 641.833 270.194 639.452 270.836Z" stroke="#1C186C" stroke-width="4.63957" stroke-linecap="round" stroke-linejoin="round"/>
            <path d="M624.738 263.989C626.462 263.989 627.86 262.437 627.86 260.522C627.86 258.607 626.462 257.055 624.738 257.055C623.013 257.055 621.615 258.607 621.615 260.522C621.615 262.437 623.013 263.989 624.738 263.989Z" stroke="#1C186C" stroke-width="4.63957" stroke-linecap="round" stroke-linejoin="round"/>
            <path d="M613.184 262.682C612.111 263.881 610.569 264.266 609.203 263.795L611.155 255.063C611.896 255.256 612.599 255.641 613.184 256.283C614.785 258.06 614.785 260.927 613.184 262.682Z" stroke="#1C186C" stroke-width="4.63957" stroke-linecap="round" stroke-linejoin="round"/>
            <path d="M615.644 274.882C615.351 273.641 615.644 272.271 616.502 271.308C617.81 269.853 619.918 269.853 621.225 271.308C621.655 271.779 621.947 272.357 622.084 272.978" stroke="#1C186C" stroke-width="4.63957" stroke-linecap="round" stroke-linejoin="round"/>
            <path d="M1178.73 231.677C1184.13 232.041 1189.54 234.63 1193.81 239.381C1198.05 244.09 1200.37 250.082 1200.72 256.074" stroke="#1C186C" stroke-width="4.63957" stroke-linecap="round" stroke-linejoin="round"/>
            <path d="M1202.95 257.466L1200.55 258.108L1176.19 264.635C1172.91 265.513 1170.04 262.303 1170.86 258.664L1172.58 250.96L1172.7 250.468L1174.2 243.769L1174.34 243.127L1176.87 231.891L1177.5 229.152C1178.08 226.519 1180.41 224.829 1182.79 225.257C1188.64 226.305 1194.15 229.259 1198.54 234.138C1202.91 238.975 1205.54 245.074 1206.5 251.559C1206.89 254.213 1205.33 256.824 1202.95 257.466Z" stroke="#1C186C" stroke-width="4.63957" stroke-linecap="round" stroke-linejoin="round"/>
            <path d="M1188.23 250.617C1189.96 250.617 1191.36 249.064 1191.36 247.15C1191.36 245.235 1189.96 243.683 1188.23 243.683C1186.51 243.683 1185.11 245.235 1185.11 247.15C1185.11 249.064 1186.51 250.617 1188.23 250.617Z" stroke="#1C186C" stroke-width="4.63957" stroke-linecap="round" stroke-linejoin="round"/>
            <path d="M1176.68 249.312C1175.61 250.511 1174.06 250.896 1172.7 250.425L1174.65 241.693C1175.39 241.886 1176.09 242.271 1176.68 242.913C1178.28 244.69 1178.28 247.557 1176.68 249.312Z" stroke="#1C186C" stroke-width="4.63957" stroke-linecap="round" stroke-linejoin="round"/>
            <path d="M1179.14 261.511C1178.85 260.27 1179.14 258.9 1180 257.937C1181.3 256.482 1183.41 256.482 1184.72 257.937C1185.15 258.408 1185.44 258.986 1185.58 259.606" stroke="#1C186C" stroke-width="4.63957" stroke-linecap="round" stroke-linejoin="round"/>
            <path d="M1196.64 69.8345L1176.66 91.7497C1174.53 94.0824 1174.53 97.8491 1176.66 100.182C1178.79 102.515 1182.22 102.515 1184.35 100.182L1204.33 78.2667C1206.46 75.934 1206.46 72.1673 1204.33 69.8345C1202.21 67.5018 1198.77 67.5018 1196.64 69.8345Z" stroke="#1C186C" stroke-width="4.63957" stroke-linecap="round" stroke-linejoin="round"/>
            <path d="M1180.86 94.6599C1183.16 92.1345 1183.98 93.0334 1186.3 90.508C1188.6 87.9826 1187.78 87.0838 1190.09 84.537C1192.39 82.0116 1193.23 82.9105 1195.53 80.3851C1197.83 77.8597 1197.01 76.9394 1199.32 74.4141" stroke="#1C186C" stroke-width="4.63957" stroke-linecap="round" stroke-linejoin="round"/>
            <path d="M1189.74 67.309L1174.36 84.1734C1171.8 86.977 1171.8 91.4927 1174.36 94.2963L1198.95 67.3304C1196.41 64.5054 1192.27 64.5054 1189.74 67.309Z" stroke="#1C186C" stroke-width="4.63957" stroke-linecap="round" stroke-linejoin="round"/>
            <path d="M1191.26 102.706L1206.64 85.8417C1209.19 83.0381 1209.19 78.5223 1206.64 75.7188L1182.05 102.685C1184.58 105.51 1188.72 105.51 1191.26 102.706Z" stroke="#1C186C" stroke-width="4.63957" stroke-linecap="round" stroke-linejoin="round"/>
            <path d="M437.655 275.953H418.139C414.665 275.953 411.854 272.871 411.854 269.061V264.952H443.939V269.061C443.939 272.871 441.129 275.953 437.655 275.953Z" stroke="#1C186C" stroke-width="4.63957" stroke-linecap="round" stroke-linejoin="round"/>
            <path d="M442.943 258.359H412.849C411.19 258.359 409.843 259.836 409.843 261.655C409.843 263.474 411.19 264.951 412.849 264.951H442.943C444.602 264.951 445.948 263.474 445.948 261.655C445.948 259.836 444.602 258.359 442.943 258.359Z" stroke="#1C186C" stroke-width="4.63957" stroke-linecap="round" stroke-linejoin="round"/>
            <path d="M428.931 240.768H426.862C418.568 240.768 411.854 248.13 411.854 257.225V258.36H443.939V257.225C443.939 248.13 437.226 240.768 428.931 240.768Z" stroke="#1C186C" stroke-width="4.63957" stroke-linecap="round" stroke-linejoin="round"/>
            <path d="M411.638 265.486C412.399 266.385 412.946 267.605 414.37 267.605C415.795 267.605 416.342 266.385 417.103 265.486" stroke="#1C186C" stroke-width="4.63957" stroke-linecap="round" stroke-linejoin="round"/>
            <path d="M429.965 265.486C430.726 266.385 431.272 267.605 432.697 267.605C434.141 267.605 434.688 266.385 435.449 265.486" stroke="#1C186C" stroke-width="4.63957" stroke-linecap="round" stroke-linejoin="round"/>
            <path d="M441.889 267.584C440.464 267.584 439.918 266.364 439.157 265.465" stroke="#1C186C" stroke-width="4.63957" stroke-linecap="round" stroke-linejoin="round"/>
            <path d="M420.811 265.486C421.572 266.385 422.118 267.605 423.543 267.605C424.967 267.605 425.514 266.385 426.275 265.486" stroke="#1C186C" stroke-width="4.63957" stroke-linecap="round" stroke-linejoin="round"/>
            <path d="M1108.13 21.2748H1088.61C1085.14 21.2748 1082.32 18.193 1082.32 14.3835V10.2744H1114.41V14.3835C1114.41 18.193 1111.6 21.2748 1108.13 21.2748Z" stroke="#1C186C" stroke-width="4.63957" stroke-linecap="round" stroke-linejoin="round"/>
            <path d="M1113.41 3.68164H1083.32C1081.66 3.68164 1080.31 5.15834 1080.31 6.97747C1080.31 8.7966 1081.66 10.2733 1083.32 10.2733H1113.41C1115.07 10.2733 1116.42 8.7966 1116.42 6.97747C1116.42 5.15834 1115.07 3.68164 1113.41 3.68164Z" stroke="#1C186C" stroke-width="4.63957" stroke-linecap="round" stroke-linejoin="round"/>
            <path d="M1099.4 -13.9102H1097.33C1089.04 -13.9102 1082.32 -6.54804 1082.32 2.5476V3.68188H1114.41V2.5476C1114.41 -6.54804 1107.7 -13.9102 1099.4 -13.9102Z" stroke="#1C186C" stroke-width="4.63957" stroke-linecap="round" stroke-linejoin="round"/>
            <path d="M1082.11 10.8076C1082.87 11.7065 1083.42 12.9264 1084.84 12.9264C1086.27 12.9264 1086.81 11.7065 1087.58 10.8076" stroke="#1C186C" stroke-width="4.63957" stroke-linecap="round" stroke-linejoin="round"/>
            <path d="M1100.44 10.8076C1101.2 11.7065 1101.74 12.9264 1103.17 12.9264C1104.61 12.9264 1105.16 11.7065 1105.92 10.8076" stroke="#1C186C" stroke-width="4.63957" stroke-linecap="round" stroke-linejoin="round"/>
            <path d="M1112.36 12.9059C1110.94 12.9059 1110.39 11.686 1109.63 10.7871" stroke="#1C186C" stroke-width="4.63957" stroke-linecap="round" stroke-linejoin="round"/>
            <path d="M1091.28 10.8076C1092.04 11.7065 1092.59 12.9264 1094.02 12.9264C1095.44 12.9264 1095.99 11.7065 1096.75 10.8076" stroke="#1C186C" stroke-width="4.63957" stroke-linecap="round" stroke-linejoin="round"/>
            <path d="M1035.92 288.792H1016.4C1012.93 288.792 1010.12 285.711 1010.12 281.901V277.792H1042.2V281.901C1042.2 285.711 1039.39 288.792 1035.92 288.792Z" stroke="#1C186C" stroke-width="4.63957" stroke-linecap="round" stroke-linejoin="round"/>
            <path d="M1041.21 271.201H1011.11C1009.45 271.201 1008.11 272.678 1008.11 274.497C1008.11 276.316 1009.45 277.793 1011.11 277.793H1041.21C1042.87 277.793 1044.21 276.316 1044.21 274.497C1044.21 272.678 1042.87 271.201 1041.21 271.201Z" stroke="#1C186C" stroke-width="4.63957" stroke-linecap="round" stroke-linejoin="round"/>
            <path d="M1027.19 253.608H1025.13C1016.83 253.608 1010.12 260.971 1010.12 270.066V271.2H1042.2V270.066C1042.2 260.971 1035.49 253.608 1027.19 253.608Z" stroke="#1C186C" stroke-width="4.63957" stroke-linecap="round" stroke-linejoin="round"/>
            <path d="M1009.9 278.327C1010.66 279.226 1011.21 280.446 1012.64 280.446C1014.06 280.446 1014.61 279.226 1015.37 278.327" stroke="#1C186C" stroke-width="4.63957" stroke-linecap="round" stroke-linejoin="round"/>
            <path d="M1028.23 278.327C1028.99 279.226 1029.54 280.446 1030.96 280.446C1032.4 280.446 1032.95 279.226 1033.71 278.327" stroke="#1C186C" stroke-width="4.63957" stroke-linecap="round" stroke-linejoin="round"/>
            <path d="M1040.15 280.424C1038.73 280.424 1038.18 279.205 1037.42 278.306" stroke="#1C186C" stroke-width="4.63957" stroke-linecap="round" stroke-linejoin="round"/>
            <path d="M1019.08 278.327C1019.84 279.226 1020.38 280.446 1021.81 280.446C1023.23 280.446 1023.78 279.226 1024.54 278.327" stroke="#1C186C" stroke-width="4.63957" stroke-linecap="round" stroke-linejoin="round"/>
        </g>
        <g opacity="0.25">
            <path d="M248.773 270.945C252.661 267.182 257.953 264.898 263.788 264.947C269.584 264.996 274.87 267.335 278.809 271.148" stroke="#1C186C" stroke-width="4.63957" stroke-linecap="round" stroke-linejoin="round"/>
<!--            <path d="M277.881 262.309C273.688 259.522 268.869 257.933 263.756 257.885C257.765 257.836 252.2 259.927 247.571 263.561C245.696 265.035 245.166 267.924 246.374 270.151L247.64 272.485L252.879 281.993C252.879 281.993 256.6 288.76 260.106 295.141C261.8 298.225 265.742 298.272 267.424 295.235L279.939 272.691L281.171 270.467C282.383 268.264 281.84 265.331 279.929 263.831C279.285 263.274 278.583 262.781 277.881 262.309Z" stroke="#1C186C" stroke-width="4.63957" stroke-linecap="round" stroke-linejoin="round"/>-->
<!--            <path d="M270.743 275.399C271.211 275.614 271.738 275.614 272.207 275.401C272.461 275.294 272.656 275.144 272.851 274.952C273.203 274.546 273.418 274.011 273.419 273.454C273.419 272.877 273.225 272.363 272.854 271.956C272.484 271.549 272.016 271.334 271.489 271.334C270.962 271.333 270.493 271.547 270.122 271.953C269.751 272.359 269.555 272.894 269.555 273.45C269.554 274.007 269.768 274.542 270.119 274.949C270.294 275.163 270.509 275.313 270.743 275.399Z" fill="#201D67"/>-->
            <path d="M263.056 273.294C263.524 273.508 264.051 273.509 264.52 273.295C264.754 273.188 264.969 273.039 265.164 272.846C265.516 272.44 265.731 271.905 265.732 271.349C265.732 270.771 265.538 270.257 265.167 269.85C264.797 269.443 264.329 269.229 263.802 269.228C263.275 269.228 262.806 269.441 262.435 269.847C262.064 270.254 261.868 270.767 261.868 271.345C261.867 271.901 262.081 272.437 262.432 272.844C262.607 273.036 262.802 273.186 263.056 273.294Z" fill="#201D67"/>
            <path d="M254.7 274.953C255.421 275.746 256.709 275.747 257.432 274.956C257.784 274.55 257.999 274.015 258 273.459C258 272.881 257.806 272.367 257.435 271.96C257.065 271.553 256.597 271.339 256.07 271.338C255.816 271.338 255.562 271.402 255.348 271.508C255.113 271.615 254.899 271.765 254.703 271.957C254.332 272.363 254.136 272.877 254.136 273.455C254.155 273.99 254.369 274.546 254.7 274.953Z" fill="#201D67"/>
            <path d="M258.146 282.705C258.244 282.983 258.38 283.197 258.555 283.411C259.277 284.204 260.565 284.205 261.288 283.414C261.464 283.2 261.6 282.987 261.698 282.709C261.796 282.452 261.855 282.174 261.855 281.917C261.856 281.639 261.797 281.36 261.7 281.125C261.603 280.868 261.466 280.632 261.291 280.418C260.921 280.011 260.452 279.797 259.925 279.796C259.672 279.796 259.418 279.86 259.203 279.966C258.969 280.073 258.754 280.223 258.559 280.415C258.187 280.821 257.992 281.335 257.991 281.913C257.991 282.169 258.049 282.448 258.146 282.705Z" fill="#201D67"/>
            <path d="M265.855 282.713C265.953 282.97 266.089 283.206 266.264 283.42C267.005 284.213 268.293 284.214 268.997 283.423C269.173 283.209 269.309 282.995 269.407 282.717C269.505 282.461 269.564 282.182 269.564 281.926C269.565 281.348 269.37 280.834 269 280.427C268.805 280.234 268.59 280.084 268.356 279.977C268.122 279.87 267.869 279.805 267.615 279.805C267.088 279.804 266.619 280.018 266.248 280.424C266.072 280.638 265.935 280.873 265.838 281.13C265.72 281.386 265.681 281.665 265.681 281.921C265.7 282.178 265.739 282.457 265.855 282.713Z" fill="#201D67"/>
            <path d="M184.619 207.25C185.872 207.557 187.176 207.514 188.41 207.127C189.645 206.74 190.771 206.019 191.687 205.032C192.075 204.593 192.292 204.006 192.292 203.395C192.293 202.784 192.077 202.197 191.69 201.758L189.468 199.23" stroke="#1C186C" stroke-width="4.63957" stroke-linecap="round" stroke-linejoin="round"/>
            <path d="M170.077 190.991C169.811 189.599 169.865 188.156 170.234 186.793C170.604 185.43 171.277 184.188 172.194 183.182C172.388 182.967 172.619 182.797 172.874 182.681C173.129 182.565 173.402 182.505 173.678 182.505C173.953 182.506 174.226 182.566 174.481 182.683C174.735 182.799 174.966 182.97 175.16 183.185L177.421 185.713" stroke="#1C186C" stroke-width="4.63957" stroke-linecap="round" stroke-linejoin="round"/>
            <path d="M187.941 185.21C187.137 183.813 186.713 182.195 186.716 180.543C186.718 179.429 186.921 178.325 187.314 177.297C187.707 176.269 188.282 175.336 189.006 174.553C189.143 174.418 189.32 174.343 189.504 174.344C189.688 174.344 189.865 174.419 190.001 174.554C190.639 175.264 191.148 176.1 191.501 177.017C191.823 177.688 192.047 178.411 192.163 179.158C192.207 179.613 192.206 180.073 192.161 180.528C191.808 182.608 190.839 184.503 189.404 185.918C190.734 184.386 192.481 183.366 194.383 183.013C194.799 182.97 195.217 182.97 195.632 183.014C196.315 183.161 196.973 183.421 197.583 183.787C198.423 184.225 199.177 184.836 199.806 185.587C199.929 185.736 199.998 185.931 199.997 186.133C199.997 186.334 199.929 186.529 199.805 186.678C198.343 188.242 196.38 189.116 194.338 189.112C192.84 189.1 191.377 188.615 190.124 187.716" stroke="#1C186C" stroke-width="4.63957" stroke-linecap="round" stroke-linejoin="round"/>
            <path d="M165.527 211.96C165.758 212.25 166.02 212.509 166.307 212.731C167.109 213.293 168.005 213.673 168.943 213.851C169.882 214.028 170.843 213.999 171.77 213.764C173.962 213.403 176.078 212.615 178.018 211.438C181.665 209.511 184.73 206.476 186.849 202.694C188.728 198.891 189.794 194.67 189.965 190.349C189.965 190.049 190.299 187.802 190.085 187.652L187.921 185.21C187.785 184.975 185.755 185.208 185.482 185.315C181.522 185.424 177.639 186.541 174.139 188.577C170.667 190.82 167.869 194.128 166.088 198.092C164.367 202.007 162.408 208.232 165.527 211.96Z" stroke="#1C186C" stroke-width="4.63957" stroke-linecap="round" stroke-linejoin="round"/>
            <path d="M179.114 209.491C178.326 206.57 176.902 203.902 174.966 201.718C173.021 199.539 170.616 197.919 167.964 197.002" stroke="#1C186C" stroke-width="4.63957" stroke-linecap="round" stroke-linejoin="round"/>
            <path d="M170.682 209.419C170.863 209.626 171.081 209.791 171.323 209.904C171.564 210.016 171.824 210.075 172.086 210.075C172.348 210.075 172.608 210.018 172.85 209.905C173.091 209.793 173.31 209.629 173.492 209.422C173.758 209.12 173.937 208.738 174.007 208.325C174.077 207.913 174.035 207.486 173.885 207.1C173.736 206.713 173.486 206.383 173.167 206.151C172.848 205.919 172.474 205.795 172.091 205.795C171.708 205.794 171.333 205.917 171.013 206.149C170.694 206.38 170.443 206.71 170.293 207.096C170.143 207.482 170.1 207.908 170.169 208.321C170.238 208.734 170.416 209.116 170.682 209.419Z" fill="#201D67"/>
            <path d="M82.0019 296.941L102.01 275.047C104.14 272.717 104.144 268.95 102.019 266.615C99.8944 264.28 96.4595 264.277 94.3298 266.607L74.3216 288.501C72.1919 290.831 72.1878 294.598 74.3126 296.933C76.4373 299.268 79.8722 299.272 82.0019 296.941Z" stroke="#1C186C" stroke-width="4.63957" stroke-linecap="round" stroke-linejoin="round"/>
            <path d="M97.8177 272.132C95.512 274.655 94.6933 273.755 92.3682 276.278C90.0626 278.801 90.8813 279.701 88.5756 282.245C86.27 284.768 85.4318 283.868 83.1262 286.391C80.8205 288.914 81.6392 289.835 79.3336 292.358" stroke="#1C186C" stroke-width="4.63957" stroke-linecap="round" stroke-linejoin="round"/>
            <path d="M88.9087 299.473L104.306 282.625C106.865 279.824 106.87 275.309 104.316 272.502L79.6971 299.442C82.2311 302.27 86.3686 302.274 88.9087 299.473Z" stroke="#1C186C" stroke-width="4.63957" stroke-linecap="round" stroke-linejoin="round"/>
            <path d="M87.4238 264.074L72.0269 280.922C69.4673 283.723 69.4625 288.239 72.0161 291.045L96.6354 264.105C94.1014 261.278 89.9639 261.273 87.4238 264.074Z" stroke="#1C186C" stroke-width="4.63957" stroke-linecap="round" stroke-linejoin="round"/>
            <path d="M357.888 61.3258C361.776 57.5633 367.067 55.279 372.903 55.3281C378.699 55.3772 383.985 57.7156 387.923 61.5293" stroke="#1C186C" stroke-width="4.63957" stroke-linecap="round" stroke-linejoin="round"/>
            <path d="M386.996 52.6899C382.803 49.9032 377.984 48.3143 372.871 48.266C366.88 48.2168 361.315 50.3082 356.686 53.9414C354.811 55.4161 354.281 58.3048 355.488 60.5318L356.754 62.8659L361.994 72.3738C361.994 72.3738 365.714 79.1407 369.22 85.5221C370.915 88.6058 374.857 88.6528 376.539 85.6156L389.053 63.0719L390.285 60.8474C391.498 58.6444 390.954 55.7118 389.043 54.2116C388.4 53.6545 387.698 53.1615 386.996 52.6899Z" stroke="#1C186C" stroke-width="4.63957" stroke-linecap="round" stroke-linejoin="round"/>
            <path d="M379.859 65.7829C380.327 65.9974 380.854 65.998 381.322 65.7845C381.576 65.6777 381.772 65.5282 381.967 65.3358C382.319 64.9295 382.534 64.3947 382.534 63.8383C382.535 63.2604 382.34 62.7466 381.97 62.3396C381.6 61.9325 381.132 61.718 380.605 61.7174C380.078 61.7169 379.609 61.9304 379.238 62.3366C378.867 62.7429 378.671 63.2777 378.67 63.8341C378.67 64.3906 378.884 64.9258 379.235 65.3328C379.41 65.547 379.625 65.697 379.859 65.7829Z" fill="#201D67"/>
            <path d="M372.172 63.6755C372.64 63.89 373.167 63.8906 373.635 63.6771C373.87 63.5703 374.085 63.4207 374.28 63.2283C374.632 62.8221 374.847 62.2873 374.847 61.7308C374.848 61.153 374.654 60.6391 374.283 60.2321C373.913 59.8251 373.445 59.6106 372.918 59.61C372.391 59.6094 371.922 59.8229 371.551 60.2292C371.18 60.6354 370.984 61.1488 370.983 61.7267C370.983 62.2831 371.197 62.8184 371.548 63.2254C371.723 63.4182 371.918 63.5682 372.172 63.6755Z" fill="#201D67"/>
            <path d="M363.817 65.3371C364.538 66.1298 365.826 66.1311 366.549 65.3401C366.901 64.9338 367.116 64.399 367.117 63.8426C367.118 63.2647 366.923 62.7509 366.553 62.3439C366.182 61.9368 365.714 61.7223 365.187 61.7217C364.933 61.7215 364.68 61.7854 364.465 61.8922C364.231 61.9989 364.016 62.1485 363.82 62.3409C363.449 62.7472 363.253 63.2606 363.253 63.8384C363.272 64.3735 363.486 64.9301 363.817 65.3371Z" fill="#201D67"/>
            <path d="M367.263 73.0865C367.36 73.3649 367.497 73.579 367.672 73.7932C368.393 74.5858 369.681 74.5872 370.404 73.7961C370.58 73.5823 370.717 73.3685 370.815 73.0903C370.913 72.8336 370.972 72.5555 370.972 72.2986C370.972 72.0204 370.914 71.7421 370.817 71.5066C370.719 71.2497 370.583 71.0141 370.408 70.7999C370.037 70.3929 369.569 70.1784 369.042 70.1778C368.788 70.1776 368.535 70.2415 368.32 70.3483C368.086 70.455 367.871 70.6046 367.675 70.797C367.304 71.2032 367.108 71.7166 367.108 72.2945C367.107 72.5513 367.166 72.8296 367.263 73.0865Z" fill="#201D67"/>
            <path d="M374.973 73.0953C375.07 73.3522 375.206 73.5878 375.382 73.802C376.122 74.5946 377.41 74.596 378.114 73.8049C378.29 73.5911 378.427 73.3772 378.524 73.0991C378.622 72.8424 378.681 72.5642 378.681 72.3074C378.682 71.7296 378.487 71.2157 378.117 70.8087C377.922 70.6159 377.708 70.4659 377.474 70.3586C377.239 70.2514 376.986 70.1869 376.732 70.1866C376.205 70.186 375.737 70.3995 375.365 70.8058C375.189 71.0196 375.053 71.2549 374.955 71.5116C374.837 71.7683 374.798 72.0464 374.798 72.3033C374.817 72.5601 374.856 72.8384 374.973 73.0953Z" fill="#201D67"/>
            <path d="M374.244 79.2382C373.873 78.8312 373.405 78.6166 372.878 78.6161C372.624 78.6158 372.371 78.6797 372.156 78.7865C371.922 78.8933 371.707 79.0429 371.511 79.2353C371.335 79.4491 371.199 79.6844 371.101 79.9411C371.003 80.1978 370.944 80.4759 370.944 80.7328C370.943 81.3106 371.157 81.8245 371.508 82.2315C372.054 82.8099 372.893 83.0248 373.615 82.6832C373.869 82.5764 374.065 82.4268 374.26 82.2344C374.612 81.8282 374.827 81.2934 374.827 80.7369C374.828 80.4587 374.77 80.1804 374.672 79.9449C374.555 79.688 374.419 79.4524 374.244 79.2382Z" fill="#201D67"/>
            <path d="M278.488 28.5919C279.742 28.8986 281.045 28.8562 282.279 28.4688C283.514 28.0813 284.64 27.3611 285.556 26.3737C285.944 25.9351 286.161 25.3482 286.162 24.7372C286.162 24.1261 285.946 23.5388 285.559 23.0993L283.337 20.5715" stroke="#1C186C" stroke-width="4.63957" stroke-linecap="round" stroke-linejoin="round"/>
            <path d="M263.947 12.3339C263.68 10.942 263.734 9.49919 264.103 8.13575C264.473 6.7723 265.146 5.53121 266.063 4.52464C266.257 4.31002 266.488 4.13974 266.743 4.02364C266.998 3.90754 267.271 3.84792 267.547 3.84822C267.822 3.84851 268.096 3.90872 268.35 4.02537C268.604 4.14201 268.835 4.31279 269.029 4.52782L271.29 7.05563" stroke="#1C186C" stroke-width="4.63957" stroke-linecap="round" stroke-linejoin="round"/>
            <path d="M281.81 6.5529C281.006 5.15614 280.582 3.5376 280.585 1.88606C280.587 0.771289 280.79 -0.332091 281.183 -1.36025C281.576 -2.38841 282.151 -3.32095 282.875 -4.1039C283.012 -4.23911 283.189 -4.31387 283.373 -4.31367C283.557 -4.31347 283.734 -4.23833 283.871 -4.10283C284.508 -3.39336 285.017 -2.55766 285.371 -1.64005C285.693 -0.969141 285.916 -0.246595 286.032 0.500814C286.076 0.956121 286.075 1.4153 286.03 1.87051C285.677 3.95109 284.708 5.84586 283.273 7.26073C284.603 5.7284 286.35 4.70923 288.253 4.35547C288.668 4.3126 289.086 4.31305 289.502 4.35682C290.184 4.5036 290.842 4.76414 291.452 5.12937C292.292 5.56731 293.047 6.17848 293.675 6.92948C293.799 7.07916 293.867 7.27373 293.866 7.47543C293.866 7.67712 293.798 7.87155 293.674 8.02096C292.212 9.58524 290.249 10.459 288.207 10.4549C286.709 10.4426 285.246 9.95814 283.993 9.05923" stroke="#1C186C" stroke-width="4.63957" stroke-linecap="round" stroke-linejoin="round"/>
            <path d="M259.396 33.3013C259.627 33.5917 259.889 33.8507 260.176 34.0726C260.978 34.6343 261.875 35.015 262.813 35.1924C263.751 35.3698 264.712 35.3404 265.639 35.1058C267.832 34.7449 269.947 33.9571 271.887 32.7797C275.534 30.8533 278.599 27.8182 280.718 24.036C282.597 20.2332 283.663 16.0115 283.834 11.6907C283.834 11.391 284.169 9.14425 283.954 8.99421L281.79 6.55211C281.654 6.31655 279.624 6.54978 279.351 6.65649C275.391 6.76568 271.508 7.88246 268.008 9.91873C264.536 12.1621 261.738 15.4694 259.957 19.4338C258.236 23.3484 256.277 29.5741 259.396 33.3013Z" stroke="#1C186C" stroke-width="4.63957" stroke-linecap="round" stroke-linejoin="round"/>
            <path d="M272.982 30.833C272.194 27.9116 270.77 25.2441 268.833 23.0598C266.889 20.8808 264.484 19.2611 261.832 18.3439" stroke="#1C186C" stroke-width="4.63957" stroke-linecap="round" stroke-linejoin="round"/>
            <path d="M264.551 30.7604C264.732 30.9677 264.951 31.1327 265.192 31.2455C265.433 31.3583 265.693 31.4166 265.955 31.4168C266.217 31.4171 266.477 31.3594 266.719 31.2471C266.96 31.1349 267.179 30.9703 267.361 30.7634C267.627 30.4614 267.806 30.0801 267.876 29.6673C267.946 29.2544 267.904 28.8281 267.754 28.4415C267.605 28.0548 267.355 27.725 267.036 27.4929C266.717 27.2609 266.343 27.137 265.96 27.1366C265.577 27.1361 265.202 27.2593 264.883 27.4906C264.563 27.722 264.312 28.0513 264.162 28.4376C264.012 28.8239 263.969 29.2501 264.038 29.6631C264.107 30.0762 264.285 30.4578 264.551 30.7604Z" fill="#201D67"/>
            <path d="M80.8525 24.6768L72.8574 0.463059L64.8102 24.6595" stroke="#1C186C" stroke-width="4.63957" stroke-linecap="round" stroke-linejoin="round"/>
            <path d="M60.7872 25.7476C61.1189 25.7479 61.4117 25.7268 61.685 25.6843C63.8322 25.3014 64.1268 23.5468 66.82 23.5497C69.845 23.5529 69.8427 25.7573 72.8286 25.7605C75.8536 25.7637 75.856 23.5594 78.842 23.5626C81.5352 23.5655 81.8066 25.2993 83.9724 25.7083C84.2261 25.7513 84.5383 25.7731 84.8701 25.7734" stroke="#1C186C" stroke-width="4.63957" stroke-linecap="round" stroke-linejoin="round"/>
            <path d="M62.7929 29.0455C62.7942 27.8898 62.9516 26.7343 63.2845 25.6859C65.1389 25.3027 65.375 23.548 67.6779 23.5505C70.2736 23.5533 70.2712 25.7577 72.8278 25.7604C75.4235 25.7632 75.4258 23.5588 77.9824 23.5616C80.2854 23.5641 80.5372 25.2979 82.3713 25.7065C82.6824 26.7555 82.8568 27.9113 82.8556 29.067C82.849 35.145 78.355 40.0626 72.8124 40.0566C67.2698 40.0506 62.7864 35.1235 62.7929 29.0455Z" stroke="#1C186C" stroke-width="4.63957" stroke-linecap="round" stroke-linejoin="round"/>
            <path d="M62.8007 22.454L82.8633 22.4756" stroke="#1C186C" stroke-width="4.63957" stroke-linecap="round" stroke-linejoin="round"/>
            <path d="M101.968 166.69C96.5627 166.321 91.1595 163.725 86.8905 158.97C82.6606 154.257 80.3446 148.262 79.9998 142.269" stroke="#1C186C" stroke-width="4.63957" stroke-linecap="round" stroke-linejoin="round"/>
            <path d="M77.7789 140.876L80.18 140.236L104.543 133.735C107.823 132.861 110.688 136.074 109.865 139.712L108.139 147.414L108.021 147.906L106.511 154.603L106.374 155.245L103.825 166.478L103.198 169.217C102.609 171.849 100.285 173.537 97.9044 173.106C92.0507 172.051 86.5503 169.092 82.1644 164.208C77.798 159.366 75.1699 153.264 74.2206 146.779C73.8331 144.124 75.3972 141.515 77.7789 140.876Z" stroke="#1C186C" stroke-width="4.63957" stroke-linecap="round" stroke-linejoin="round"/>
            <path d="M92.4854 147.739C90.7609 147.737 89.3612 149.288 89.3591 151.203C89.3571 153.118 90.7534 154.672 92.478 154.673C94.2025 154.675 95.6023 153.125 95.6043 151.21C95.6064 149.295 94.21 147.741 92.4854 147.739Z" stroke="#1C186C" stroke-width="4.63957" stroke-linecap="round" stroke-linejoin="round"/>
            <path d="M104.038 149.058C105.112 147.861 106.655 147.478 108.02 147.95L106.059 156.68C105.318 156.486 104.616 156.1 104.031 155.457C102.432 153.679 102.435 150.812 104.038 149.058Z" stroke="#1C186C" stroke-width="4.63957" stroke-linecap="round" stroke-linejoin="round"/>
            <path d="M101.592 136.856C101.883 138.097 101.589 139.467 100.729 140.429C99.42 141.883 97.3123 141.881 96.0062 140.424C95.5774 139.953 95.2853 139.374 95.1493 138.754" stroke="#1C186C" stroke-width="4.63957" stroke-linecap="round" stroke-linejoin="round"/>
            <path d="M175.904 87.3073L195.912 65.4137C198.042 63.0832 198.046 59.3165 195.921 56.9815C193.797 54.6464 190.362 54.6427 188.232 56.9732L168.224 78.8669C166.094 81.1973 166.09 84.964 168.215 87.299C170.34 89.6341 173.775 89.6378 175.904 87.3073Z" stroke="#1C186C" stroke-width="4.63957" stroke-linecap="round" stroke-linejoin="round"/>
            <path d="M191.72 62.4983C189.414 65.0212 188.596 64.1215 186.271 66.6444C183.965 69.1673 184.784 70.067 182.478 72.6113C180.172 75.1342 179.334 74.2345 177.028 76.7574C174.723 79.2803 175.542 80.2014 173.236 82.7243" stroke="#1C186C" stroke-width="4.63957" stroke-linecap="round" stroke-linejoin="round"/>
            <path d="M182.81 89.8404L198.207 72.9925C200.767 70.1917 200.771 65.676 198.218 62.8696L173.598 89.8091C176.133 92.6368 180.27 92.6412 182.81 89.8404Z" stroke="#1C186C" stroke-width="4.63957" stroke-linecap="round" stroke-linejoin="round"/>
            <path d="M181.327 54.4403L165.93 71.2882C163.37 74.089 163.365 78.6047 165.919 81.4111L190.538 54.4716C188.004 51.6439 183.867 51.6395 181.327 54.4403Z" stroke="#1C186C" stroke-width="4.63957" stroke-linecap="round" stroke-linejoin="round"/>
            <path d="M279.581 135.977L299.097 135.998C302.571 136.001 305.378 139.086 305.374 142.896L305.37 147.005L273.285 146.97L273.289 142.861C273.294 139.052 276.107 135.973 279.581 135.977Z" stroke="#1C186C" stroke-width="4.63957" stroke-linecap="round" stroke-linejoin="round"/>
            <path d="M274.274 153.564L304.368 153.596C306.027 153.598 307.375 152.123 307.377 150.304C307.379 148.485 306.034 147.007 304.375 147.005L274.281 146.972C272.622 146.971 271.274 148.446 271.272 150.265C271.27 152.084 272.615 153.562 274.274 153.564Z" stroke="#1C186C" stroke-width="4.63957" stroke-linecap="round" stroke-linejoin="round"/>
            <path d="M288.267 171.171L290.335 171.173C298.63 171.182 305.351 163.827 305.361 154.732L305.362 153.597L273.278 153.563L273.276 154.697C273.267 163.793 279.972 171.162 288.267 171.171Z" stroke="#1C186C" stroke-width="4.63957" stroke-linecap="round" stroke-linejoin="round"/>
            <path d="M305.586 146.471C304.826 145.571 304.281 144.351 302.856 144.349C301.431 144.347 300.884 145.567 300.121 146.465" stroke="#1C186C" stroke-width="4.63957" stroke-linecap="round" stroke-linejoin="round"/>
            <path d="M287.26 146.451C286.5 145.551 285.954 144.331 284.53 144.329C283.086 144.328 282.538 145.547 281.776 146.445" stroke="#1C186C" stroke-width="4.63957" stroke-linecap="round" stroke-linejoin="round"/>
            <path d="M275.337 144.341C276.762 144.343 277.307 145.563 278.067 146.463" stroke="#1C186C" stroke-width="4.63957" stroke-linecap="round" stroke-linejoin="round"/>
            <path d="M296.414 146.461C295.653 145.561 295.108 144.341 293.684 144.339C292.259 144.338 291.711 145.557 290.949 146.455" stroke="#1C186C" stroke-width="4.63957" stroke-linecap="round" stroke-linejoin="round"/>
        </g>
<!--        <g filter="url(#filter0_d_1_13195)">-->
<!--            <rect x="66" y="151" width="439.733" height="68" rx="14.2342" fill="white"/>-->
<!--        </g>-->
<!--        <path d="M95.3177 180.625V184.415H99.4497V185.635H95.3177V189.54H99.9377V190.76H93.8374V179.405H99.9377V180.625H95.3177ZM107.009 181.682C108.094 181.682 108.972 182.013 109.645 182.675C110.317 183.325 110.653 184.269 110.653 185.505V190.76H109.189V185.717C109.189 184.828 108.967 184.15 108.522 183.683C108.077 183.206 107.47 182.968 106.7 182.968C105.919 182.968 105.296 183.212 104.829 183.7C104.374 184.188 104.146 184.898 104.146 185.831V190.76H102.666V181.845H104.146V183.114C104.439 182.658 104.835 182.306 105.334 182.057C105.843 181.807 106.402 181.682 107.009 181.682ZM115.365 183.065V188.32C115.365 188.753 115.457 189.063 115.642 189.247C115.826 189.42 116.146 189.507 116.601 189.507H117.691V190.76H116.357C115.533 190.76 114.915 190.57 114.503 190.19C114.091 189.811 113.885 189.187 113.885 188.32V183.065H112.73V181.845H113.885V179.6H115.365V181.845H117.691V183.065H115.365ZM128.107 185.961C128.107 186.243 128.091 186.541 128.058 186.856H120.933C120.987 187.734 121.285 188.423 121.827 188.922C122.381 189.41 123.048 189.654 123.828 189.654C124.468 189.654 125 189.507 125.423 189.214C125.856 188.911 126.16 188.509 126.334 188.011H127.928C127.689 188.867 127.212 189.567 126.496 190.109C125.781 190.64 124.891 190.906 123.828 190.906C122.982 190.906 122.223 190.716 121.551 190.337C120.889 189.957 120.369 189.42 119.989 188.726C119.61 188.021 119.42 187.208 119.42 186.286C119.42 185.364 119.604 184.556 119.973 183.862C120.342 183.168 120.857 182.637 121.518 182.268C122.191 181.888 122.961 181.699 123.828 181.699C124.674 181.699 125.423 181.883 126.073 182.252C126.724 182.621 127.223 183.13 127.57 183.781C127.928 184.421 128.107 185.147 128.107 185.961ZM126.578 185.652C126.578 185.088 126.453 184.605 126.203 184.204C125.954 183.792 125.612 183.483 125.179 183.277C124.756 183.06 124.284 182.951 123.763 182.951C123.015 182.951 122.375 183.19 121.844 183.667C121.323 184.144 121.025 184.806 120.949 185.652H126.578ZM132.029 183.293C132.289 182.783 132.658 182.387 133.135 182.105C133.623 181.823 134.214 181.682 134.909 181.682V183.212H134.518C132.859 183.212 132.029 184.112 132.029 185.912V190.76H130.549V181.845H132.029V183.293ZM149.869 179.421L146.176 186.481V190.76H144.696V186.481L140.987 179.421H142.63L145.428 185.164L148.226 179.421H149.869ZM155.807 190.906C154.971 190.906 154.212 190.716 153.529 190.337C152.857 189.957 152.325 189.42 151.935 188.726C151.555 188.021 151.365 187.208 151.365 186.286C151.365 185.375 151.561 184.573 151.951 183.879C152.352 183.174 152.895 182.637 153.578 182.268C154.261 181.888 155.026 181.699 155.872 181.699C156.718 181.699 157.482 181.888 158.165 182.268C158.849 182.637 159.385 183.168 159.776 183.862C160.177 184.556 160.378 185.364 160.378 186.286C160.378 187.208 160.172 188.021 159.76 188.726C159.358 189.42 158.811 189.957 158.117 190.337C157.422 190.716 156.652 190.906 155.807 190.906ZM155.807 189.605C156.338 189.605 156.837 189.48 157.303 189.231C157.769 188.981 158.144 188.607 158.426 188.108C158.718 187.609 158.865 187.002 158.865 186.286C158.865 185.57 158.724 184.963 158.442 184.464C158.16 183.965 157.791 183.597 157.336 183.358C156.88 183.109 156.387 182.984 155.855 182.984C155.313 182.984 154.814 183.109 154.359 183.358C153.914 183.597 153.556 183.965 153.285 184.464C153.014 184.963 152.878 185.57 152.878 186.286C152.878 187.013 153.008 187.626 153.269 188.124C153.54 188.623 153.898 188.997 154.342 189.247C154.787 189.485 155.275 189.605 155.807 189.605ZM170.718 181.845V190.76H169.238V189.442C168.956 189.898 168.56 190.255 168.05 190.516C167.551 190.765 166.998 190.89 166.391 190.89C165.697 190.89 165.073 190.749 164.52 190.467C163.967 190.174 163.528 189.74 163.203 189.166C162.888 188.591 162.731 187.891 162.731 187.067V181.845H164.195V186.872C164.195 187.75 164.417 188.428 164.862 188.905C165.307 189.372 165.914 189.605 166.684 189.605C167.476 189.605 168.099 189.361 168.555 188.873C169.01 188.385 169.238 187.674 169.238 186.742V181.845H170.718ZM175.186 183.293C175.446 182.783 175.815 182.387 176.292 182.105C176.78 181.823 177.371 181.682 178.065 181.682V183.212H177.675C176.016 183.212 175.186 184.112 175.186 185.912V190.76H173.706V181.845H175.186V183.293ZM186.568 180.625V184.415H190.7V185.635H186.568V189.54H191.188V190.76H185.087V179.405H191.188V180.625H186.568ZM204.636 181.682C205.33 181.682 205.948 181.829 206.491 182.122C207.033 182.404 207.461 182.832 207.776 183.407C208.09 183.982 208.248 184.681 208.248 185.505V190.76H206.783V185.717C206.783 184.828 206.561 184.15 206.116 183.683C205.683 183.206 205.092 182.968 204.343 182.968C203.573 182.968 202.961 183.217 202.505 183.716C202.05 184.204 201.822 184.914 201.822 185.847V190.76H200.358V185.717C200.358 184.828 200.135 184.15 199.691 183.683C199.257 183.206 198.666 182.968 197.918 182.968C197.148 182.968 196.535 183.217 196.079 183.716C195.624 184.204 195.396 184.914 195.396 185.847V190.76H193.916V181.845H195.396V183.13C195.689 182.664 196.079 182.306 196.567 182.057C197.066 181.807 197.614 181.682 198.21 181.682C198.959 181.682 199.62 181.851 200.195 182.187C200.77 182.523 201.198 183.016 201.48 183.667C201.73 183.038 202.142 182.55 202.717 182.203C203.291 181.856 203.931 181.682 204.636 181.682ZM210.611 186.27C210.611 185.359 210.795 184.562 211.164 183.879C211.533 183.184 212.037 182.648 212.677 182.268C213.327 181.888 214.049 181.699 214.84 181.699C215.621 181.699 216.299 181.867 216.874 182.203C217.449 182.539 217.877 182.962 218.159 183.472V181.845H219.656V190.76H218.159V189.1C217.866 189.621 217.427 190.055 216.841 190.402C216.266 190.738 215.594 190.906 214.824 190.906C214.032 190.906 213.317 190.711 212.677 190.321C212.037 189.93 211.533 189.382 211.164 188.678C210.795 187.973 210.611 187.17 210.611 186.27ZM218.159 186.286C218.159 185.614 218.023 185.028 217.752 184.529C217.481 184.03 217.112 183.651 216.646 183.391C216.191 183.119 215.686 182.984 215.133 182.984C214.58 182.984 214.076 183.114 213.62 183.374C213.165 183.635 212.801 184.014 212.53 184.513C212.259 185.012 212.124 185.598 212.124 186.27C212.124 186.953 212.259 187.55 212.53 188.059C212.801 188.558 213.165 188.943 213.62 189.214C214.076 189.475 214.58 189.605 215.133 189.605C215.686 189.605 216.191 189.475 216.646 189.214C217.112 188.943 217.481 188.558 217.752 188.059C218.023 187.55 218.159 186.959 218.159 186.286ZM223.41 180.397C223.128 180.397 222.889 180.3 222.694 180.104C222.499 179.909 222.401 179.671 222.401 179.389C222.401 179.107 222.499 178.868 222.694 178.673C222.889 178.478 223.128 178.38 223.41 178.38C223.681 178.38 223.909 178.478 224.093 178.673C224.288 178.868 224.386 179.107 224.386 179.389C224.386 179.671 224.288 179.909 224.093 180.104C223.909 180.3 223.681 180.397 223.41 180.397ZM224.126 181.845V190.76H222.645V181.845H224.126ZM228.617 178.722V190.76H227.137V178.722H228.617ZM243.155 188.238H238.21L237.299 190.76H235.737L239.837 179.486H241.545L245.628 190.76H244.066L243.155 188.238ZM242.732 187.034L240.683 181.308L238.633 187.034H242.732ZM247.35 186.27C247.35 185.359 247.534 184.562 247.903 183.879C248.271 183.184 248.776 182.648 249.416 182.268C250.066 181.888 250.793 181.699 251.595 181.699C252.29 181.699 252.935 181.861 253.531 182.187C254.128 182.501 254.583 182.919 254.898 183.439V178.722H256.394V190.76H254.898V189.084C254.605 189.616 254.171 190.055 253.596 190.402C253.022 190.738 252.349 190.906 251.579 190.906C250.787 190.906 250.066 190.711 249.416 190.321C248.776 189.93 248.271 189.382 247.903 188.678C247.534 187.973 247.35 187.17 247.35 186.27ZM254.898 186.286C254.898 185.614 254.762 185.028 254.491 184.529C254.22 184.03 253.851 183.651 253.385 183.391C252.929 183.119 252.425 182.984 251.872 182.984C251.319 182.984 250.815 183.114 250.359 183.374C249.904 183.635 249.54 184.014 249.269 184.513C248.998 185.012 248.862 185.598 248.862 186.27C248.862 186.953 248.998 187.55 249.269 188.059C249.54 188.558 249.904 188.943 250.359 189.214C250.815 189.475 251.319 189.605 251.872 189.605C252.425 189.605 252.929 189.475 253.385 189.214C253.851 188.943 254.22 188.558 254.491 188.059C254.762 187.55 254.898 186.959 254.898 186.286ZM258.831 186.27C258.831 185.359 259.015 184.562 259.384 183.879C259.753 183.184 260.257 182.648 260.897 182.268C261.548 181.888 262.274 181.699 263.077 181.699C263.771 181.699 264.416 181.861 265.013 182.187C265.609 182.501 266.065 182.919 266.379 183.439V178.722H267.876V190.76H266.379V189.084C266.086 189.616 265.653 190.055 265.078 190.402C264.503 190.738 263.831 190.906 263.061 190.906C262.269 190.906 261.548 190.711 260.897 190.321C260.257 189.93 259.753 189.382 259.384 188.678C259.015 187.973 258.831 187.17 258.831 186.27ZM266.379 186.286C266.379 185.614 266.244 185.028 265.972 184.529C265.701 184.03 265.333 183.651 264.866 183.391C264.411 183.119 263.906 182.984 263.353 182.984C262.8 182.984 262.296 183.114 261.84 183.374C261.385 183.635 261.022 184.014 260.751 184.513C260.479 185.012 260.344 185.598 260.344 186.27C260.344 186.953 260.479 187.55 260.751 188.059C261.022 188.558 261.385 188.943 261.84 189.214C262.296 189.475 262.8 189.605 263.353 189.605C263.906 189.605 264.411 189.475 264.866 189.214C265.333 188.943 265.701 188.558 265.972 188.059C266.244 187.55 266.379 186.959 266.379 186.286ZM272.346 183.293C272.606 182.783 272.975 182.387 273.452 182.105C273.94 181.823 274.531 181.682 275.225 181.682V183.212H274.835C273.175 183.212 272.346 184.112 272.346 185.912V190.76H270.865V181.845H272.346V183.293ZM285.556 185.961C285.556 186.243 285.54 186.541 285.507 186.856H278.382C278.436 187.734 278.734 188.423 279.277 188.922C279.83 189.41 280.497 189.654 281.278 189.654C281.917 189.654 282.449 189.507 282.872 189.214C283.306 188.911 283.609 188.509 283.783 188.011H285.377C285.138 188.867 284.661 189.567 283.945 190.109C283.23 190.64 282.34 190.906 281.278 190.906C280.432 190.906 279.672 190.716 279 190.337C278.338 189.957 277.818 189.42 277.438 188.726C277.059 188.021 276.869 187.208 276.869 186.286C276.869 185.364 277.053 184.556 277.422 183.862C277.791 183.168 278.306 182.637 278.967 182.268C279.64 181.888 280.41 181.699 281.278 181.699C282.123 181.699 282.872 181.883 283.522 182.252C284.173 182.621 284.672 183.13 285.019 183.781C285.377 184.421 285.556 185.147 285.556 185.961ZM284.027 185.652C284.027 185.088 283.902 184.605 283.653 184.204C283.403 183.792 283.062 183.483 282.628 183.277C282.205 183.06 281.733 182.951 281.212 182.951C280.464 182.951 279.824 183.19 279.293 183.667C278.772 184.144 278.474 184.806 278.398 185.652H284.027ZM291.154 190.906C290.471 190.906 289.858 190.792 289.316 190.565C288.773 190.326 288.345 190.001 288.03 189.588C287.716 189.166 287.542 188.683 287.51 188.141H289.039C289.082 188.585 289.289 188.949 289.657 189.231C290.037 189.513 290.53 189.654 291.138 189.654C291.702 189.654 292.146 189.529 292.472 189.279C292.797 189.03 292.96 188.715 292.96 188.336C292.96 187.945 292.786 187.658 292.439 187.474C292.092 187.278 291.555 187.089 290.829 186.904C290.167 186.731 289.625 186.557 289.202 186.384C288.79 186.199 288.432 185.934 288.128 185.587C287.835 185.229 287.689 184.762 287.689 184.188C287.689 183.732 287.824 183.315 288.096 182.935C288.367 182.555 288.752 182.257 289.251 182.04C289.749 181.813 290.319 181.699 290.959 181.699C291.946 181.699 292.743 181.948 293.35 182.447C293.957 182.946 294.283 183.629 294.326 184.497H292.846C292.813 184.03 292.623 183.656 292.276 183.374C291.94 183.092 291.485 182.951 290.91 182.951C290.378 182.951 289.955 183.065 289.641 183.293C289.326 183.521 289.169 183.819 289.169 184.188C289.169 184.48 289.261 184.724 289.446 184.92C289.641 185.104 289.88 185.256 290.162 185.375C290.454 185.484 290.856 185.608 291.365 185.749C292.005 185.923 292.526 186.096 292.927 186.27C293.328 186.433 293.67 186.682 293.952 187.018C294.245 187.354 294.397 187.794 294.407 188.336C294.407 188.824 294.272 189.263 294.001 189.654C293.73 190.044 293.345 190.353 292.846 190.581C292.358 190.798 291.794 190.906 291.154 190.906ZM300.141 190.906C299.458 190.906 298.845 190.792 298.303 190.565C297.761 190.326 297.332 190.001 297.018 189.588C296.703 189.166 296.53 188.683 296.497 188.141H298.026C298.07 188.585 298.276 188.949 298.644 189.231C299.024 189.513 299.517 189.654 300.125 189.654C300.689 189.654 301.133 189.529 301.459 189.279C301.784 189.03 301.947 188.715 301.947 188.336C301.947 187.945 301.773 187.658 301.426 187.474C301.079 187.278 300.542 187.089 299.816 186.904C299.154 186.731 298.612 186.557 298.189 186.384C297.777 186.199 297.419 185.934 297.115 185.587C296.822 185.229 296.676 184.762 296.676 184.188C296.676 183.732 296.812 183.315 297.083 182.935C297.354 182.555 297.739 182.257 298.238 182.04C298.737 181.813 299.306 181.699 299.946 181.699C300.933 181.699 301.73 181.948 302.337 182.447C302.945 182.946 303.27 183.629 303.313 184.497H301.833C301.8 184.03 301.611 183.656 301.264 183.374C300.927 183.092 300.472 182.951 299.897 182.951C299.366 182.951 298.943 183.065 298.628 183.293C298.314 183.521 298.156 183.819 298.156 184.188C298.156 184.48 298.249 184.724 298.433 184.92C298.628 185.104 298.867 185.256 299.149 185.375C299.442 185.484 299.843 185.608 300.353 185.749C300.992 185.923 301.513 186.096 301.914 186.27C302.316 186.433 302.657 186.682 302.939 187.018C303.232 187.354 303.384 187.794 303.395 188.336C303.395 188.824 303.259 189.263 302.988 189.654C302.717 190.044 302.332 190.353 301.833 190.581C301.345 190.798 300.781 190.906 300.141 190.906Z" fill="#878787"/>-->
<!--        <rect x="367.015" y="158.253" width="132.373" height="53.4427" rx="11.2531" fill="#6C5FBC"/>-->
<!--        <path d="M396.885 189.769C396.197 189.769 395.577 189.651 395.027 189.415C394.476 189.169 394.043 188.825 393.729 188.383C393.414 187.94 393.256 187.424 393.256 186.834H395.056C395.096 187.276 395.268 187.64 395.573 187.925C395.887 188.21 396.325 188.353 396.885 188.353C397.466 188.353 397.918 188.215 398.243 187.94C398.567 187.655 398.729 187.291 398.729 186.848C398.729 186.504 398.626 186.224 398.42 186.008C398.223 185.791 397.972 185.624 397.667 185.506C397.372 185.388 396.959 185.26 396.428 185.122C395.759 184.945 395.214 184.768 394.791 184.591C394.378 184.404 394.024 184.119 393.729 183.736C393.434 183.352 393.286 182.841 393.286 182.201C393.286 181.611 393.434 181.095 393.729 180.653C394.024 180.21 394.437 179.871 394.968 179.635C395.499 179.399 396.113 179.281 396.812 179.281C397.805 179.281 398.616 179.531 399.246 180.033C399.885 180.525 400.239 181.203 400.308 182.069H398.449C398.42 181.695 398.243 181.375 397.918 181.11C397.594 180.844 397.166 180.712 396.635 180.712C396.153 180.712 395.759 180.834 395.455 181.08C395.15 181.326 394.997 181.68 394.997 182.142C394.997 182.457 395.091 182.718 395.278 182.924C395.474 183.121 395.72 183.278 396.015 183.396C396.31 183.514 396.713 183.642 397.225 183.78C397.903 183.967 398.454 184.154 398.877 184.341C399.31 184.527 399.674 184.818 399.969 185.211C400.274 185.594 400.426 186.111 400.426 186.76C400.426 187.281 400.283 187.773 399.998 188.235C399.723 188.697 399.315 189.071 398.774 189.356C398.243 189.632 397.613 189.769 396.885 189.769ZM404.52 179.413V185.949C404.52 186.725 404.722 187.311 405.125 187.704C405.538 188.097 406.108 188.294 406.836 188.294C407.574 188.294 408.144 188.097 408.547 187.704C408.96 187.311 409.167 186.725 409.167 185.949V179.413H410.849V185.919C410.849 186.755 410.667 187.463 410.303 188.043C409.939 188.624 409.452 189.056 408.842 189.341C408.232 189.627 407.559 189.769 406.821 189.769C406.084 189.769 405.41 189.627 404.8 189.341C404.2 189.056 403.723 188.624 403.369 188.043C403.015 187.463 402.838 186.755 402.838 185.919V179.413H404.52ZM418.968 184.4C419.519 184.498 419.986 184.788 420.37 185.27C420.753 185.752 420.945 186.298 420.945 186.907C420.945 187.429 420.808 187.901 420.532 188.324C420.267 188.737 419.878 189.066 419.367 189.312C418.855 189.548 418.26 189.666 417.582 189.666H413.481V179.413H417.39C418.088 179.413 418.688 179.531 419.19 179.767C419.691 180.003 420.07 180.323 420.326 180.726C420.581 181.12 420.709 181.562 420.709 182.054C420.709 182.644 420.552 183.136 420.237 183.529C419.922 183.923 419.5 184.213 418.968 184.4ZM415.162 183.721H417.242C417.793 183.721 418.221 183.598 418.526 183.352C418.841 183.096 418.998 182.733 418.998 182.261C418.998 181.798 418.841 181.439 418.526 181.184C418.221 180.918 417.793 180.785 417.242 180.785H415.162V183.721ZM417.434 188.294C418.005 188.294 418.452 188.156 418.777 187.881C419.101 187.606 419.263 187.222 419.263 186.73C419.263 186.229 419.091 185.83 418.747 185.535C418.403 185.24 417.946 185.093 417.375 185.093H415.162V188.294H417.434ZM426.594 189.769C425.905 189.769 425.286 189.651 424.735 189.415C424.184 189.169 423.751 188.825 423.437 188.383C423.122 187.94 422.965 187.424 422.965 186.834H424.764C424.804 187.276 424.976 187.64 425.281 187.925C425.595 188.21 426.033 188.353 426.594 188.353C427.174 188.353 427.626 188.215 427.951 187.94C428.275 187.655 428.438 187.291 428.438 186.848C428.438 186.504 428.334 186.224 428.128 186.008C427.931 185.791 427.68 185.624 427.375 185.506C427.08 185.388 426.667 185.26 426.136 185.122C425.467 184.945 424.922 184.768 424.499 184.591C424.086 184.404 423.732 184.119 423.437 183.736C423.142 183.352 422.994 182.841 422.994 182.201C422.994 181.611 423.142 181.095 423.437 180.653C423.732 180.21 424.145 179.871 424.676 179.635C425.207 179.399 425.821 179.281 426.52 179.281C427.513 179.281 428.324 179.531 428.954 180.033C429.593 180.525 429.947 181.203 430.016 182.069H428.157C428.128 181.695 427.951 181.375 427.626 181.11C427.302 180.844 426.874 180.712 426.343 180.712C425.861 180.712 425.467 180.834 425.163 181.08C424.858 181.326 424.705 181.68 424.705 182.142C424.705 182.457 424.799 182.718 424.986 182.924C425.182 183.121 425.428 183.278 425.723 183.396C426.018 183.514 426.421 183.642 426.933 183.78C427.611 183.967 428.162 184.154 428.585 184.341C429.018 184.527 429.382 184.818 429.677 185.211C429.982 185.594 430.134 186.111 430.134 186.76C430.134 187.281 429.991 187.773 429.706 188.235C429.431 188.697 429.023 189.071 428.482 189.356C427.951 189.632 427.321 189.769 426.594 189.769ZM432 184.518C432 183.514 432.231 182.615 432.694 181.818C433.166 181.021 433.8 180.402 434.597 179.959C435.403 179.507 436.283 179.281 437.237 179.281C438.329 179.281 439.298 179.551 440.143 180.092C440.999 180.623 441.619 181.38 442.002 182.364H439.981C439.716 181.823 439.347 181.42 438.875 181.154C438.403 180.889 437.857 180.756 437.237 180.756C436.559 180.756 435.954 180.908 435.423 181.213C434.892 181.518 434.474 181.956 434.169 182.526C433.874 183.096 433.726 183.76 433.726 184.518C433.726 185.275 433.874 185.939 434.169 186.509C434.474 187.079 434.892 187.522 435.423 187.837C435.954 188.142 436.559 188.294 437.237 188.294C437.857 188.294 438.403 188.161 438.875 187.896C439.347 187.63 439.716 187.227 439.981 186.686H442.002C441.619 187.67 440.999 188.427 440.143 188.958C439.298 189.489 438.329 189.755 437.237 189.755C436.274 189.755 435.393 189.533 434.597 189.091C433.8 188.638 433.166 188.014 432.694 187.217C432.231 186.421 432 185.521 432 184.518ZM449.739 189.666L447.378 185.565H446.095V189.666H444.413V179.413H447.954C448.741 179.413 449.404 179.551 449.945 179.826C450.496 180.102 450.904 180.471 451.17 180.933C451.445 181.395 451.583 181.911 451.583 182.482C451.583 183.151 451.386 183.76 450.993 184.311C450.609 184.852 450.014 185.221 449.208 185.417L451.745 189.666H449.739ZM446.095 184.223H447.954C448.583 184.223 449.055 184.065 449.37 183.75C449.694 183.436 449.857 183.013 449.857 182.482C449.857 181.951 449.699 181.538 449.385 181.243C449.07 180.938 448.593 180.785 447.954 180.785H446.095V184.223ZM455.858 179.413V189.666H454.177V179.413H455.858ZM463.997 184.4C464.547 184.498 465.015 184.788 465.398 185.27C465.782 185.752 465.973 186.298 465.973 186.907C465.973 187.429 465.836 187.901 465.56 188.324C465.295 188.737 464.906 189.066 464.395 189.312C463.884 189.548 463.289 189.666 462.61 189.666H458.509V179.413H462.418C463.116 179.413 463.716 179.531 464.218 179.767C464.72 180.003 465.098 180.323 465.354 180.726C465.61 181.12 465.737 181.562 465.737 182.054C465.737 182.644 465.58 183.136 465.265 183.529C464.951 183.923 464.528 184.213 463.997 184.4ZM460.191 183.721H462.271C462.821 183.721 463.249 183.598 463.554 183.352C463.869 183.096 464.026 182.733 464.026 182.261C464.026 181.798 463.869 181.439 463.554 181.184C463.249 180.918 462.821 180.785 462.271 180.785H460.191V183.721ZM462.462 188.294C463.033 188.294 463.48 188.156 463.805 187.881C464.129 187.606 464.292 187.222 464.292 186.73C464.292 186.229 464.12 185.83 463.775 185.535C463.431 185.24 462.974 185.093 462.403 185.093H460.191V188.294H462.462ZM469.925 180.771V183.78H473.466V185.152H469.925V188.294H473.908V189.666H468.244V179.399H473.908V180.771H469.925Z" fill="#F7F8FA"/>-->
<!--        <path d="M101.846 80.89C101.052 79.5833 99.9558 78.58 98.5558 77.88C97.2024 77.18 95.5924 76.83 93.7258 76.83C90.2724 76.83 87.5424 77.95 85.5358 80.19C83.5758 82.43 82.5958 85.44 82.5958 89.22C82.5958 93.4667 83.6458 96.71 85.7458 98.95C87.8924 101.143 90.9958 102.24 95.0558 102.24C99.8624 102.24 103.292 100.07 105.346 95.73H91.5558V85.86H117.176V99.16C116.102 101.773 114.516 104.223 112.416 106.51C110.362 108.797 107.749 110.687 104.576 112.18C101.402 113.627 97.7858 114.35 93.7258 114.35C88.7791 114.35 84.3924 113.3 80.5658 111.2C76.7858 109.053 73.8458 106.09 71.7458 102.31C69.6924 98.4833 68.6658 94.12 68.6658 89.22C68.6658 84.3667 69.6924 80.05 71.7458 76.27C73.8458 72.4433 76.7858 69.48 80.5658 67.38C84.3458 65.2333 88.7091 64.16 93.6558 64.16C99.8624 64.16 104.996 65.6533 109.056 68.64C113.116 71.6267 115.636 75.71 116.616 80.89H101.846ZM137.044 75.64V83.69H152.794V94.12H137.044V103.01H154.894V114H123.324V64.65H154.894V75.64H137.044ZM198.844 64.65V75.57H185.684V114H171.964V75.57H158.944V64.65H198.844ZM253.368 74.94H232.368V82.71C233.255 81.7767 234.468 81.03 236.008 80.47C237.548 79.91 239.252 79.63 241.118 79.63C244.478 79.63 247.278 80.4 249.518 81.94C251.805 83.48 253.485 85.51 254.558 88.03C255.632 90.55 256.168 93.3033 256.168 96.29C256.168 101.797 254.605 106.137 251.478 109.31C248.352 112.437 244.012 114 238.458 114C234.585 114 231.225 113.347 228.378 112.04C225.578 110.687 223.432 108.82 221.938 106.44C220.445 104.06 219.675 101.33 219.628 98.25H232.998C233.138 99.3233 233.605 100.257 234.398 101.05C235.192 101.843 236.358 102.24 237.898 102.24C239.532 102.24 240.768 101.68 241.608 100.56C242.448 99.44 242.868 97.9467 242.868 96.08C242.868 94.26 242.425 92.8833 241.538 91.95C240.652 90.97 239.368 90.48 237.688 90.48C236.428 90.48 235.402 90.8067 234.608 91.46C233.862 92.0667 233.418 92.8367 233.278 93.77H219.908V62.83H253.368V74.94ZM261.998 87.68C261.998 79.6533 263.631 73.33 266.898 68.71C270.164 64.09 275.298 61.78 282.298 61.78C289.298 61.78 294.431 64.09 297.698 68.71C301.011 73.33 302.668 79.6533 302.668 87.68C302.668 95.8 301.034 102.17 297.768 106.79C294.501 111.41 289.344 113.72 282.298 113.72C275.251 113.72 270.094 111.41 266.828 106.79C263.608 102.17 261.998 95.8 261.998 87.68ZM289.088 87.68C289.088 83.48 288.644 80.2833 287.758 78.09C286.871 75.85 285.051 74.73 282.298 74.73C279.544 74.73 277.724 75.85 276.838 78.09C275.951 80.2833 275.508 83.48 275.508 87.68C275.508 91.9733 275.928 95.24 276.768 97.48C277.654 99.6733 279.498 100.77 282.298 100.77C285.098 100.77 286.918 99.6733 287.758 97.48C288.644 95.24 289.088 91.9733 289.088 87.68ZM307.093 75.99C307.093 72.0233 308.213 68.99 310.453 66.89C312.693 64.79 315.633 63.74 319.273 63.74C322.867 63.74 325.783 64.79 328.023 66.89C330.263 68.99 331.383 72.0233 331.383 75.99C331.383 79.91 330.263 82.9433 328.023 85.09C325.783 87.19 322.867 88.24 319.273 88.24C315.68 88.24 312.74 87.19 310.453 85.09C308.213 82.9433 307.093 79.91 307.093 75.99ZM356.793 64.51L330.263 114H317.103L343.633 64.51H356.793ZM319.203 71.79C317.29 71.79 316.333 73.19 316.333 75.99C316.333 78.79 317.29 80.19 319.203 80.19C320.137 80.19 320.86 79.84 321.373 79.14C321.933 78.44 322.213 77.39 322.213 75.99C322.213 74.59 321.933 73.54 321.373 72.84C320.86 72.14 320.137 71.79 319.203 71.79ZM342.513 102.45C342.513 98.53 343.633 95.52 345.873 93.42C348.16 91.2733 351.1 90.2 354.693 90.2C358.287 90.2 361.18 91.2733 363.373 93.42C365.613 95.52 366.733 98.53 366.733 102.45C366.733 106.417 365.613 109.473 363.373 111.62C361.18 113.72 358.287 114.77 354.693 114.77C351.1 114.77 348.16 113.72 345.873 111.62C343.633 109.473 342.513 106.417 342.513 102.45ZM354.623 98.25C352.663 98.25 351.683 99.65 351.683 102.45C351.683 105.297 352.663 106.72 354.623 106.72C355.51 106.72 356.21 106.37 356.723 105.67C357.283 104.923 357.563 103.85 357.563 102.45C357.563 101.097 357.283 100.07 356.723 99.37C356.21 98.6233 355.51 98.25 354.623 98.25Z" fill="white"/>-->
    </g>
    <defs>
        <filter id="filter0_d_1_13195" x="20.6667" y="112.92" width="530.4" height="158.667" filterUnits="userSpaceOnUse" color-interpolation-filters="sRGB">
            <feFlood flood-opacity="0" result="BackgroundImageFix"/>
            <feColorMatrix in="SourceAlpha" type="matrix" values="0 0 0 0 0 0 0 0 0 0 0 0 0 0 0 0 0 0 127 0" result="hardAlpha"/>
            <feOffset dy="7.25333"/>
            <feGaussianBlur stdDeviation="22.6667"/>
            <feComposite in2="hardAlpha" operator="out"/>
            <feColorMatrix type="matrix" values="0 0 0 0 0 0 0 0 0 0 0 0 0 0 0 0 0 0 0.1 0"/>
            <feBlend mode="normal" in2="BackgroundImageFix" result="effect1_dropShadow_1_13195"/>
            <feBlend mode="normal" in="SourceGraphic" in2="effect1_dropShadow_1_13195" result="shape"/>
        </filter>
    </defs>
</svg>
