<svg width="43" height="43" viewBox="0 0 43 43" fill="none" xmlns="http://www.w3.org/2000/svg">
    <circle opacity="0.3" cx="21.6744" cy="21.0699" r="20.9927" fill="#6C5FBC"/>
    <path d="M18.2023 18.9624C18.2023 16.914 19.8629 15.2533 21.9113 15.2533C23.9598 15.2533 25.6204 16.914 25.6204 18.9624C25.6204 21.0109 23.9598 22.6715 21.9113 22.6715C19.8629 22.6715 18.2023 21.0109 18.2023 18.9624Z" fill="#6C5FBC"/>
    <path fill-rule="evenodd" clip-rule="evenodd" d="M12.5228 17.6812C12.915 12.9234 16.8909 9.26172 21.6649 9.26172H22.1579C26.9318 9.26172 30.9078 12.9234 31.2999 17.6812C31.5111 20.2429 30.7198 22.7866 29.0928 24.7764L23.6226 31.4662C22.7382 32.5479 21.0846 32.5479 20.2001 31.4662L14.73 24.7764C13.1029 22.7866 12.3117 20.2429 12.5228 17.6812ZM21.9113 13.5414C18.9174 13.5414 16.4904 15.9685 16.4904 18.9624C16.4904 21.9564 18.9174 24.3834 21.9113 24.3834C24.9053 24.3834 27.3323 21.9564 27.3323 18.9624C27.3323 15.9685 24.9053 13.5414 21.9113 13.5414Z" fill="#6C5FBC"/>
</svg>
