<svg width="43" height="43" viewBox="0 0 43 43" fill="none" xmlns="http://www.w3.org/2000/svg">
    <circle opacity="0.3" cx="21.6744" cy="21.0406" r="20.9927" fill="#6C5FBC"/>
    <path fill-rule="evenodd" clip-rule="evenodd" d="M11.1777 21.6963C11.1777 15.537 16.1708 10.5439 22.3301 10.5439C28.4894 10.5439 33.4825 15.537 33.4825 21.6963C33.4825 27.8556 28.4894 32.8487 22.3301 32.8487C16.1708 32.8487 11.1777 27.8556 11.1777 21.6963ZM23.3142 15.1361C23.3142 14.5926 22.8736 14.1521 22.3301 14.1521C21.7867 14.1521 21.3461 14.5926 21.3461 15.1361V21.6963C21.3461 22.0356 21.5209 22.351 21.8086 22.5308L25.7447 24.9909C26.2056 25.2789 26.8127 25.1388 27.1007 24.6779C27.3887 24.2171 27.2486 23.61 26.7878 23.322L23.3142 21.1509V15.1361Z" fill="#6C5FBC"/>
</svg>
